<svg width="20" height="20" viewBox="0 0 20 20" fill="none" xmlns="http://www.w3.org/2000/svg">
<path d="M15 20C17.7614 20 20 17.7614 20 15C20 12.2386 17.7614 10 15 10C12.2386 10 10 12.2386 10 15C10 17.7614 12.2386 20 15 20ZM17.3982 13.5818L15.4907 16.761C15.1321 17.3587 14.3072 17.4602 13.8143 16.9673L12.7092 15.8622C12.4303 15.5833 12.4303 15.131 12.7092 14.8521C12.9882 14.5731 13.4404 14.5731 13.7194 14.8521L14.501 15.6337L16.1732 12.8468C16.3762 12.5085 16.8149 12.3988 17.1532 12.6018C17.4915 12.8048 17.6012 13.2435 17.3982 13.5818Z" fill="#2F479B"/>
<path d="M12.8571 4.28571C12.8571 6.65265 10.9384 8.57143 8.57143 8.57143C6.20449 8.57143 4.28571 6.65265 4.28571 4.28571C4.28571 1.91878 6.20449 0 8.57143 0C10.9384 0 12.8571 1.91878 12.8571 4.28571ZM8.57143 7.14286C10.1494 7.14286 11.4286 5.86367 11.4286 4.28571C11.4286 2.70776 10.1494 1.42857 8.57143 1.42857C6.99347 1.42857 5.71429 2.70776 5.71429 4.28571C5.71429 5.86367 6.99347 7.14286 8.57143 7.14286Z" fill="#2F479B"/>
<path d="M8.93723 17.1429C8.77591 16.6865 8.66468 16.2064 8.61012 15.7093H1.42857C1.43061 15.3568 1.64822 14.3006 2.61728 13.3316C3.54908 12.3998 5.30126 11.4286 8.57141 11.4286C8.94355 11.4286 9.29604 11.4411 9.62989 11.4648C9.95154 10.9772 10.3378 10.536 10.7765 10.1533C10.1101 10.0545 9.37712 10 8.57143 10C1.42857 10 0 14.2857 0 15.7143C0 17.1429 1.42857 17.1429 1.42857 17.1429H8.93723Z" fill="#2F479B"/>
</svg>
