<svg width="21" height="20" viewBox="0 0 21 20" fill="none" xmlns="http://www.w3.org/2000/svg">
<path fill-rule="evenodd" clip-rule="evenodd" d="M8.66785 1.08108H11.8915C11.5841 1.49037 11.3334 1.94471 11.1511 2.43243L9.45946 2.43243V8.51351C9.45946 9.63301 8.55193 10.5405 7.43243 10.5405H1.35135L1.35135 17.973C1.35135 18.3461 1.65386 18.6486 2.02703 18.6486L16.8919 18.6486C17.2651 18.6486 17.5676 18.3461 17.5676 17.973L17.5676 9.55943C18.047 9.43604 18.5007 9.24853 18.9189 9.00658L18.9189 17.973C18.9189 19.0925 18.0114 20 16.8919 20L2.02703 20C0.907531 20 0 19.0925 0 17.973V9.74894C0 9.21134 0.213561 8.69576 0.593702 8.31561L7.23453 1.67478C7.61467 1.29464 8.13025 1.08108 8.66785 1.08108ZM8.10811 2.71231V8.51351C8.10811 8.88668 7.8056 9.18919 7.43243 9.18919L1.63122 9.18919L8.10811 2.71231Z" fill="#2F479B"/>
<path d="M3.73563 16.8815C3.628 16.8815 3.53383 16.8754 3.45311 16.8633C3.3706 16.8528 3.30064 16.8398 3.24324 16.8242V16.1519C3.30064 16.1641 3.36253 16.1754 3.4289 16.1858C3.49347 16.198 3.56253 16.2041 3.63607 16.2041C3.73294 16.2041 3.81993 16.1858 3.89706 16.1493C3.97419 16.1146 4.03518 16.0477 4.08003 15.9487C4.12487 15.8497 4.14729 15.7073 4.14729 15.5214V11.9518H4.98138V15.5162C4.98138 15.8428 4.92847 16.1059 4.82264 16.3057C4.7186 16.5072 4.57241 16.6531 4.38406 16.7434C4.19752 16.8355 3.98137 16.8815 3.73563 16.8815Z" fill="#2F479B"/>
<path d="M9.48687 13.8513C9.48687 14.1448 9.44921 14.4123 9.37387 14.6538C9.29853 14.8935 9.18373 15.1002 9.02947 15.2739C8.877 15.4476 8.68328 15.5813 8.4483 15.6751C8.21332 15.7672 7.93529 15.8132 7.6142 15.8132C7.29312 15.8132 7.01509 15.7672 6.78011 15.6751C6.54513 15.5813 6.35051 15.4476 6.19625 15.2739C6.04378 15.1002 5.92988 14.8926 5.85454 14.6512C5.7792 14.4097 5.74154 14.1413 5.74154 13.846C5.74154 13.4517 5.8079 13.1087 5.94064 12.8169C6.07517 12.5233 6.28145 12.2957 6.55948 12.1342C6.83751 11.9727 7.19088 11.8919 7.61959 11.8919C8.0465 11.8919 8.39717 11.9727 8.67162 12.1342C8.94785 12.2957 9.15234 12.5233 9.28508 12.8169C9.41961 13.1104 9.48687 13.4552 9.48687 13.8513ZM6.61599 13.8513C6.61599 14.117 6.65007 14.3463 6.71823 14.5391C6.78819 14.7302 6.89671 14.8778 7.04379 14.9821C7.19088 15.0845 7.38102 15.1358 7.6142 15.1358C7.85098 15.1358 8.04291 15.0845 8.19 14.9821C8.33708 14.8778 8.44381 14.7302 8.51018 14.5391C8.57834 14.3463 8.61242 14.117 8.61242 13.8513C8.61242 13.4517 8.53529 13.1373 8.38103 12.908C8.22677 12.6788 7.97295 12.5641 7.61959 12.5641C7.38461 12.5641 7.19267 12.6162 7.04379 12.7205C6.89671 12.8229 6.78819 12.9706 6.71823 13.1634C6.65007 13.3545 6.61599 13.5838 6.61599 13.8513Z" fill="#2F479B"/>
<path d="M10.247 11.9518H11.4713C11.995 11.9518 12.3914 12.023 12.6605 12.1655C12.9296 12.3079 13.0641 12.558 13.0641 12.9159C13.0641 13.06 13.0399 13.1903 12.9915 13.3067C12.9448 13.4231 12.8767 13.5186 12.787 13.5933C12.6973 13.668 12.5879 13.7166 12.4587 13.7392V13.7653C12.5897 13.7913 12.708 13.8365 12.8139 13.9008C12.9197 13.9633 13.004 14.0554 13.0668 14.1769C13.1314 14.2968 13.1637 14.4566 13.1637 14.6564C13.1637 14.8874 13.1054 15.0854 12.9888 15.2504C12.8722 15.4154 12.7054 15.5422 12.4883 15.6308C12.2731 15.7177 12.0166 15.7611 11.7188 15.7611H10.247V11.9518ZM11.0811 13.4604H11.5654C11.8076 13.4604 11.9753 13.4239 12.0686 13.351C12.1619 13.2763 12.2085 13.1669 12.2085 13.0227C12.2085 12.8768 12.1529 12.7726 12.0417 12.71C11.9323 12.6458 11.7583 12.6136 11.5197 12.6136H11.0811V13.4604ZM11.0811 14.1014V15.0941H11.6246C11.8757 15.0941 12.0506 15.0472 12.1493 14.9534C12.2479 14.8596 12.2973 14.7337 12.2973 14.5756C12.2973 14.4818 12.2758 14.3993 12.2327 14.3281C12.1897 14.2568 12.117 14.2013 12.0148 14.1613C11.9143 14.1214 11.7753 14.1014 11.5977 14.1014H11.0811Z" fill="#2F479B"/>
<path d="M16.2162 14.7033C16.2162 14.9291 16.1597 15.1254 16.0467 15.2921C15.9337 15.4589 15.7687 15.5874 15.5516 15.6777C15.3364 15.7681 15.0745 15.8132 14.766 15.8132C14.6296 15.8132 14.496 15.8045 14.3651 15.7872C14.2359 15.7698 14.1113 15.7446 13.9911 15.7116C13.8727 15.6769 13.7597 15.6343 13.6521 15.5839V14.8335C13.8386 14.9134 14.0323 14.9855 14.2332 15.0498C14.4341 15.1141 14.6332 15.1462 14.8305 15.1462C14.9669 15.1462 15.0763 15.1288 15.1588 15.0941C15.2431 15.0594 15.3041 15.0116 15.3418 14.9508C15.3794 14.89 15.3983 14.8205 15.3983 14.7423C15.3983 14.6468 15.3651 14.5652 15.2987 14.4974C15.2323 14.4297 15.1409 14.3663 15.0243 14.3072C14.9095 14.2482 14.7794 14.1848 14.6341 14.117C14.5427 14.0753 14.4431 14.025 14.3355 13.9659C14.2278 13.9051 14.1256 13.8313 14.0287 13.7444C13.9319 13.6576 13.8521 13.5525 13.7893 13.4292C13.7283 13.3041 13.6978 13.1547 13.6978 12.981C13.6978 12.7535 13.7516 12.5589 13.8592 12.3974C13.9669 12.2358 14.1202 12.1125 14.3193 12.0274C14.5202 11.9405 14.757 11.8971 15.0297 11.8971C15.2341 11.8971 15.4288 11.9206 15.6135 11.9675C15.8001 12.0126 15.9947 12.0786 16.1974 12.1655L15.9283 12.7934C15.7472 12.7222 15.5848 12.6675 15.4413 12.6293C15.2978 12.5893 15.1516 12.5693 15.0027 12.5693C14.8987 12.5693 14.8099 12.5858 14.7364 12.6188C14.6628 12.6501 14.6072 12.6953 14.5696 12.7543C14.5319 12.8116 14.5131 12.8785 14.5131 12.9549C14.5131 13.0453 14.54 13.1217 14.5938 13.1842C14.6494 13.245 14.7319 13.3041 14.8413 13.3614C14.9525 13.4187 15.0906 13.4856 15.2557 13.562C15.4566 13.6541 15.6279 13.7505 15.7696 13.8513C15.9131 13.9503 16.0234 14.0675 16.1005 14.203C16.1777 14.3368 16.2162 14.5035 16.2162 14.7033Z" fill="#2F479B"/>
<path fill-rule="evenodd" clip-rule="evenodd" d="M16.2162 8.64865C18.6045 8.64865 20.5405 6.71258 20.5405 4.32432C20.5405 1.93607 18.6045 0 16.2162 0C13.828 0 11.8919 1.93607 11.8919 4.32432C11.8919 6.71258 13.828 8.64865 16.2162 8.64865ZM18.2517 3.3328C18.4206 3.16393 18.4206 2.89013 18.2517 2.72125C18.0828 2.55238 17.809 2.55238 17.6402 2.72125L15.3514 5.01007L14.3598 4.01855C14.191 3.84967 13.9172 3.84967 13.7483 4.01855C13.5794 4.18742 13.5794 4.46122 13.7483 4.6301L15.0456 5.9274C15.1267 6.00849 15.2367 6.05405 15.3514 6.05405C15.466 6.05405 15.576 6.00849 15.6571 5.9274L18.2517 3.3328Z" fill="#2F479B"/>
</svg>
