<svg width="36" height="20" viewBox="0 0 36 20" fill="none" xmlns="http://www.w3.org/2000/svg">
<path d="M23.8334 20C23.8334 20 25.3334 20 25.3334 18.4444C25.3334 16.8888 23.8334 12.2222 17.8333 12.2222C11.8333 12.2222 10.3333 16.8888 10.3333 18.4444C10.3333 20 11.8333 20 11.8333 20H23.8334ZM11.8669 18.4444C11.8617 18.4438 11.8544 18.4428 11.8456 18.4413C11.8414 18.4405 11.8373 18.4398 11.8334 18.439C11.8355 18.0283 12.0836 16.8374 12.9722 15.7623C13.8034 14.7567 15.2574 13.7777 17.8333 13.7777C20.4093 13.7777 21.8633 14.7567 22.6945 15.7623C23.583 16.8374 23.8312 18.0283 23.8333 18.439C23.8294 18.4398 23.8253 18.4405 23.8211 18.4413C23.8123 18.4428 23.805 18.4438 23.7998 18.4444H11.8669Z" fill="#2F479B"/>
<path d="M23.1333 5.33334C23.1333 8.27886 20.7455 10.6667 17.8 10.6667C14.8545 10.6667 12.4666 8.27886 12.4666 5.33334C12.4666 2.38782 14.8545 0 17.8 0C20.7455 0 23.1333 2.38782 23.1333 5.33334ZM20.4869 3.31312C20.2916 3.11785 19.975 3.11785 19.7798 3.31312C19.775 3.31783 19.7706 3.32283 19.7665 3.32807L17.4516 6.27783L16.0559 4.88215C15.8606 4.68689 15.5441 4.68689 15.3488 4.88215C15.1535 5.07741 15.1535 5.394 15.3488 5.58926L17.1131 7.35356C17.3084 7.54882 17.6249 7.54882 17.8202 7.35356C17.8245 7.34921 17.8286 7.34462 17.8325 7.33982L20.494 4.01298C20.6821 3.81721 20.6797 3.50598 20.4869 3.31312Z" fill="#2F479B"/>
<path d="M10.4039 12.5466C9.85221 12.3636 9.23931 12.2306 8.55943 12.1625C8.22293 12.1289 7.87003 12.1111 7.5 12.1111C1.5 12.1111 0 16.7778 0 18.3333C0 19.3704 0.5 19.8889 1.5 19.8889H7.82455C7.61335 19.447 7.5 18.9231 7.5 18.3333C7.5 16.7618 8.06587 15.1569 9.13473 13.8163C9.49991 13.3583 9.92381 12.9311 10.4039 12.5466ZM7.38007 13.6674C6.48384 15.0878 6 16.7073 6 18.3333H1.5C1.5 17.9278 1.74637 16.7311 2.63889 15.6512C3.45703 14.6614 4.87874 13.6973 7.38007 13.6674Z" fill="#2F479B"/>
<path d="M2.25 6.66667C2.25 4.08934 4.26472 2 6.75 2C9.23529 2 11.25 4.08934 11.25 6.66667C11.25 9.244 9.23529 11.3333 6.75 11.3333C4.26472 11.3333 2.25 9.244 2.25 6.66667ZM6.75 3.55556C5.09315 3.55556 3.75 4.94845 3.75 6.66667C3.75 8.38489 5.09315 9.77778 6.75 9.77778C8.40686 9.77778 9.75001 8.38489 9.75001 6.66667C9.75001 4.94845 8.40686 3.55556 6.75 3.55556Z" fill="#2F479B"/>
<path d="M24.8461 12.5466C25.3978 12.3636 26.0107 12.2306 26.6906 12.1625C27.0271 12.1289 27.38 12.1111 27.75 12.1111C33.75 12.1111 35.25 16.7778 35.25 18.3333C35.25 19.3704 34.75 19.8889 33.75 19.8889H27.4255C27.6367 19.447 27.75 18.9231 27.75 18.3333C27.75 16.7618 27.1842 15.1569 26.1153 13.8163C25.7501 13.3583 25.3262 12.9311 24.8461 12.5466ZM27.87 13.6674C28.7662 15.0878 29.25 16.7073 29.25 18.3333H33.75C33.75 17.9278 33.5037 16.7311 32.6111 15.6512C31.793 14.6614 30.3713 13.6973 27.87 13.6674Z" fill="#2F479B"/>
<path d="M33 6.66667C33 4.08934 30.9853 2 28.5 2C26.0147 2 24 4.08934 24 6.66667C24 9.244 26.0147 11.3333 28.5 11.3333C30.9853 11.3333 33 9.244 33 6.66667ZM28.5 3.55556C30.1569 3.55556 31.5 4.94845 31.5 6.66667C31.5 8.38489 30.1569 9.77778 28.5 9.77778C26.8432 9.77778 25.5 8.38489 25.5 6.66667C25.5 4.94845 26.8432 3.55556 28.5 3.55556Z" fill="#2F479B"/>
</svg>
