<svg width="36" height="20" viewBox="0 0 36 20" fill="none" xmlns="http://www.w3.org/2000/svg">
<path d="M24.1071 20C24.1071 20 25.7143 20 25.7143 18.3333C25.7143 16.6667 24.1071 11.6667 17.6786 11.6667C11.25 11.6667 9.64285 16.6667 9.64285 18.3333C9.64285 20 11.25 20 11.25 20H24.1071ZM11.2859 18.3333C11.2803 18.3327 11.2725 18.3316 11.2631 18.33C11.2586 18.3292 11.2543 18.3284 11.25 18.3275C11.2523 17.8875 11.5182 16.6115 12.4702 15.4596C13.3607 14.3823 14.9186 13.3333 17.6786 13.3333C20.4385 13.3333 21.9964 14.3823 22.8869 15.4596C23.8389 16.6115 24.1048 17.8875 24.1071 18.3275C24.1028 18.3284 24.0985 18.3292 24.094 18.33C24.0846 18.3316 24.0768 18.3327 24.0712 18.3333H11.2859Z" fill="#2F479B"/>
<path d="M17.6786 8.33333C19.4538 8.33333 20.8928 6.84094 20.8928 5C20.8928 3.15905 19.4538 1.66667 17.6786 1.66667C15.9034 1.66667 14.4643 3.15905 14.4643 5C14.4643 6.84094 15.9034 8.33333 17.6786 8.33333ZM22.5 5C22.5 7.76142 20.3414 9.99999 17.6786 9.99999C15.0158 9.99999 12.8571 7.76142 12.8571 5C12.8571 2.23857 15.0158 0 17.6786 0C20.3414 0 22.5 2.23857 22.5 5Z" fill="#2F479B"/>
<path d="M11.147 12.1333C10.5559 11.9372 9.89925 11.7946 9.1708 11.7218C8.81027 11.6857 8.43216 11.6667 8.03571 11.6667C1.60714 11.6667 0 16.6667 0 18.3333C0 19.4444 0.535714 20 1.60714 20H8.38343C8.15715 19.5265 8.03571 18.9652 8.03571 18.3333C8.03571 16.6495 8.64199 14.93 9.7872 13.4936C10.1785 13.0029 10.6326 12.5452 11.147 12.1333ZM7.90721 13.3341C6.94696 14.856 6.42857 16.5911 6.42857 18.3333H1.60714C1.60714 17.8988 1.87111 16.6166 2.82737 15.4596C3.70395 14.3991 5.22722 13.3661 7.90721 13.3341Z" fill="#2F479B"/>
<path d="M2.41071 5.83333C2.41071 3.07191 4.56934 0.833333 7.23214 0.833333C9.89494 0.833333 12.0536 3.07191 12.0536 5.83333C12.0536 8.59475 9.89494 10.8333 7.23214 10.8333C4.56934 10.8333 2.41071 8.59475 2.41071 5.83333ZM7.23214 2.5C5.45694 2.5 4.01785 3.99238 4.01785 5.83333C4.01785 7.67428 5.45694 9.16666 7.23214 9.16666C9.00734 9.16666 10.4464 7.67428 10.4464 5.83333C10.4464 3.99238 9.00734 2.5 7.23214 2.5Z" fill="#2F479B"/>
<path d="M24.5672 12.1333C25.1583 11.9372 25.815 11.7947 26.5435 11.7218C26.904 11.6857 27.2821 11.6667 27.6786 11.6667C34.1071 11.6667 35.7143 16.6667 35.7143 18.3333C35.7143 19.4444 35.1785 20 34.1071 20H27.3308C27.5571 19.5265 27.6786 18.9652 27.6786 18.3333C27.6786 16.6495 27.0723 14.93 25.9271 13.4937C25.5358 13.0029 25.0816 12.5452 24.5672 12.1333ZM27.8071 13.3341C28.7673 14.856 29.2857 16.5911 29.2857 18.3333H34.1071C34.1071 17.8988 33.8432 16.6166 32.8869 15.4597C32.0103 14.3991 30.487 13.3661 27.8071 13.3341Z" fill="#2F479B"/>
<path d="M33.3035 5.83334C33.3035 3.07192 31.1449 0.833347 28.4821 0.833347C25.8193 0.833347 23.6607 3.07192 23.6607 5.83334C23.6607 8.59476 25.8193 10.8333 28.4821 10.8333C31.1449 10.8333 33.3035 8.59476 33.3035 5.83334ZM28.4821 2.50001C30.2573 2.50001 31.6964 3.9924 31.6964 5.83334C31.6964 7.67429 30.2573 9.16667 28.4821 9.16667C26.7069 9.16667 25.2678 7.67429 25.2678 5.83334C25.2678 3.9924 26.7069 2.50001 28.4821 2.50001Z" fill="#2F479B"/>
</svg>
