<svg width="32" height="20" viewBox="0 0 32 20" fill="none" xmlns="http://www.w3.org/2000/svg">
<path d="M21.0937 20C21.0937 20 22.5 20 22.5 18.5417C22.5 17.0833 21.0937 12.7083 15.4687 12.7083C9.84374 12.7083 8.43749 17.0833 8.43749 18.5417C8.43749 20 9.84374 20 9.84374 20H21.0937ZM9.87516 18.5417C9.87028 18.5411 9.86347 18.5401 9.8552 18.5387C9.8513 18.538 9.84748 18.5373 9.84375 18.5366C9.84579 18.1515 10.0784 17.0351 10.9114 16.0272C11.6906 15.0845 13.0538 14.1667 15.4687 14.1667C17.8837 14.1667 19.2468 15.0845 20.026 16.0272C20.8591 17.0351 21.0917 18.1515 21.0937 18.5366C21.09 18.5373 21.0862 18.538 21.0823 18.5387C21.074 18.5401 21.0672 18.5411 21.0623 18.5417H9.87516Z" fill="#2F479B"/>
<path d="M9.75364 13.1166C9.23642 12.945 8.66184 12.8203 8.02445 12.7565C7.70898 12.725 7.37814 12.7083 7.03124 12.7083C1.40625 12.7083 0 17.0833 0 18.5417C0 19.5139 0.468749 20 1.40625 20H7.3355C7.1375 19.5857 7.03124 19.0946 7.03124 18.5417C7.03124 17.0683 7.56174 15.5638 8.56379 14.3069C8.90615 13.8775 9.30355 13.4771 9.75364 13.1166ZM6.9188 14.1673C6.07859 15.499 5.62499 17.0172 5.62499 18.5417H1.40625C1.40625 18.1614 1.63722 17.0395 2.47395 16.0272C3.24096 15.0992 4.57381 14.1953 6.9188 14.1673Z" fill="#2F479B"/>
<path d="M2.10937 7.60417C2.10937 5.18793 3.99817 3.22918 6.32812 3.22918C8.65806 3.22918 10.5469 5.18793 10.5469 7.60417C10.5469 10.0204 8.65806 11.9792 6.32812 11.9792C3.99817 11.9792 2.10937 10.0204 2.10937 7.60417ZM6.32812 4.68751C4.77482 4.68751 3.51562 5.99334 3.51562 7.60417C3.51562 9.215 4.77482 10.5208 6.32812 10.5208C7.88142 10.5208 9.14061 9.215 9.14061 7.60417C9.14061 5.99334 7.88142 4.68751 6.32812 4.68751Z" fill="#2F479B"/>
<path d="M21.4963 13.1166C22.0135 12.9451 22.5881 12.8203 23.2255 12.7565C23.541 12.725 23.8718 12.7083 24.2187 12.7083C29.8437 12.7083 31.25 17.0833 31.25 18.5417C31.25 19.5139 30.7812 20 29.8437 20H23.9145C24.1125 19.5857 24.2187 19.0946 24.2187 18.5417C24.2187 17.0683 23.6882 15.5638 22.6862 14.307C22.3438 13.8776 21.9464 13.4771 21.4963 13.1166ZM24.3312 14.1673C25.1714 15.499 25.625 17.0173 25.625 18.5417H29.8437C29.8437 18.1614 29.6127 17.0395 28.776 16.0272C28.009 15.0992 26.6761 14.1954 24.3312 14.1673Z" fill="#2F479B"/>
<path d="M29.1406 7.60418C29.1406 5.18794 27.2518 3.22919 24.9218 3.22919C22.5919 3.22919 20.7031 5.18794 20.7031 7.60418C20.7031 10.0204 22.5919 11.9792 24.9218 11.9792C27.2518 11.9792 29.1406 10.0204 29.1406 7.60418ZM24.9218 4.68752C26.4751 4.68752 27.7343 5.99335 27.7343 7.60418C27.7343 9.21501 26.4751 10.5208 24.9218 10.5208C23.3685 10.5208 22.1093 9.21501 22.1093 7.60418C22.1093 5.99335 23.3685 4.68752 24.9218 4.68752Z" fill="#2F479B"/>
<path d="M12.5004 2.85768C12.4909 3.02795 12.6314 3.16589 12.802 3.16589H13.8326C14.0052 3.16589 14.1424 3.02516 14.1656 2.85413C14.2768 2.03397 14.8397 1.43616 15.8431 1.43616C16.7 1.43616 17.4855 1.86462 17.4855 2.89611C17.4855 3.68957 17.0174 4.05456 16.2795 4.60998C15.4384 5.22094 14.7719 5.93505 14.8195 7.0935L14.8232 7.3645C14.8256 7.5354 14.9648 7.67272 15.1357 7.67272H16.1495C16.3221 7.67272 16.462 7.53281 16.462 7.36022V7.22838C16.462 6.33178 16.8032 6.06994 17.7236 5.3717C18.4853 4.79247 19.2787 4.14977 19.2787 2.8009C19.2787 0.912474 17.6839 0 15.9383 0C14.3544 0 12.6186 0.738262 12.5004 2.85768ZM14.4466 10.061C14.4466 10.7275 14.9782 11.2195 15.7082 11.2195C16.4699 11.2195 16.9936 10.7275 16.9936 10.061C16.9936 9.37072 16.4699 8.88671 15.7082 8.88671C14.9782 8.88671 14.4466 9.37072 14.4466 10.061Z" fill="#2F479B"/>
</svg>
