<svg width="22" height="21" viewBox="0 0 22 21" fill="none" xmlns="http://www.w3.org/2000/svg">
<path d="M11.4368 0.0406694C11.3244 -0.0135565 11.1946 -0.0135565 11.0822 0.0406694L4.79367 3.07515C4.64221 3.14824 4.5472 3.30738 4.55189 3.48014C4.55658 3.65291 4.66007 3.80628 4.81526 3.87047L11.1038 6.47146C11.2038 6.5128 11.3153 6.5128 11.4152 6.47146L16.2904 4.45507V9.53695C15.8273 9.53695 15.4519 9.92511 15.4519 10.4039V12.1379H17.9673V10.4039C17.9673 9.92511 17.5919 9.53695 17.1289 9.53695V4.10827L17.7038 3.87047C17.859 3.80628 17.9625 3.65291 17.9672 3.48014C17.9719 3.30738 17.8768 3.14824 17.7254 3.07515L11.4368 0.0406694ZM11.2595 5.60208L6.02578 3.43737L11.2595 0.911875L16.4933 3.43737L11.2595 5.60208Z" fill="#2F479B"/>
<path d="M8.05283 6.09657C7.94377 6.05428 7.8226 6.06081 7.71839 6.1146C7.61417 6.1684 7.53629 6.2646 7.50342 6.38015L7.08419 7.85403C7.02318 8.06853 7.12993 8.29581 7.33069 8.37885L11.1038 9.93944C11.2038 9.98078 11.3153 9.98078 11.4152 9.93944L15.1884 8.37885C15.3891 8.29581 15.4959 8.06853 15.4349 7.85403L15.0156 6.38015C14.9828 6.2646 14.9049 6.1684 14.8007 6.1146C14.6965 6.06081 14.5753 6.05428 14.4662 6.09657L11.2595 7.33998L8.05283 6.09657ZM7.99621 7.72033L8.1806 7.07206L11.1123 8.20885C11.2072 8.24565 11.3118 8.24565 11.4067 8.20885L14.3385 7.07206L14.5228 7.72033L11.2595 9.07005L7.99621 7.72033Z" fill="#2F479B"/>
<path d="M0.392857 19.0625H5.89286C6.11011 19.0625 6.28571 18.8901 6.28571 18.6778V18.2931H7.37157L11.5716 20.3497C11.7535 20.4385 11.9499 20.4831 12.1464 20.4828C12.3695 20.4828 12.593 20.4254 12.793 20.3112L21.3636 15.4155C21.756 15.1909 22 14.7746 22 14.3295C22 13.9575 21.833 13.6067 21.5427 13.3674C21.2516 13.1278 20.867 13.0281 20.4961 13.0908L12.705 14.4176L10.492 12.2506C10.4186 12.1783 10.3188 12.1379 10.2143 12.1379H0.392857C0.175607 12.1379 0 12.3103 0 12.5226V18.6778C0 18.8901 0.175607 19.0625 0.392857 19.0625ZM13.147 15.938C13.2825 16.0711 13.3571 16.2476 13.3571 16.4354C13.3571 16.8235 13.035 17.139 12.639 17.139C12.45 17.139 12.265 17.064 12.131 16.9328L10.0992 14.9435L9.54368 15.4875L11.5755 17.4767C11.8596 17.7553 12.2367 17.9084 12.639 17.9084C13.4679 17.9084 14.1429 17.2478 14.1429 16.4354C14.1429 16.0422 13.9865 15.6725 13.7025 15.394L13.3846 15.0828L20.6305 13.8487C20.777 13.8233 20.924 13.8633 21.0367 13.956C21.1495 14.0491 21.2143 14.1853 21.2143 14.3295C21.2143 14.5023 21.1196 14.6638 20.9672 14.7512L12.397 19.6464C12.2516 19.7295 12.0745 19.7349 11.9232 19.6614L7.64029 17.5645C7.58568 17.5375 7.52518 17.5237 7.46429 17.5237H6.28571V12.9073H10.0516L13.147 15.938ZM5.5 18.2931H4.71429V12.9073H5.5V18.2931ZM0.785714 12.9073H3.92857V18.2931H0.785714V12.9073Z" fill="#2F479B"/>
</svg>
