<svg width="20" height="20" viewBox="0 0 20 20" fill="none" xmlns="http://www.w3.org/2000/svg">
<path d="M17.8571 20C19.0406 20 20 19.0406 20 17.8571L20 2.14286C20 0.959389 19.0406 8.38725e-08 17.8571 1.87335e-07L9.16316 9.47387e-07C8.59484 9.97071e-07 8.04979 0.225764 7.64793 0.627629L0.627627 7.64794C0.225762 8.0498 -9.97071e-07 8.59484 -9.47387e-07 9.16316L-1.87335e-07 17.8571C-8.38725e-08 19.0406 0.959389 20 2.14286 20L17.8571 20ZM18.5714 17.8571C18.5714 18.2516 18.2516 18.5714 17.8571 18.5714L2.14286 18.5714C1.74837 18.5714 1.42857 18.2516 1.42857 17.8571L1.42857 10L7.85714 10C9.04061 10 10 9.04061 10 7.85714L10 1.42857L17.8571 1.42857C18.2516 1.42857 18.5714 1.74837 18.5714 2.14286L18.5714 17.8571ZM8.57143 1.72444L8.57143 7.85714C8.57143 8.25163 8.25163 8.57143 7.85714 8.57143L1.72444 8.57143L8.57143 1.72444Z" fill="#2F479B"/>
<path d="M3.55034 17.2143C3.43005 17.2143 3.32479 17.2067 3.23457 17.1916C3.14235 17.1786 3.06416 17.1624 3 17.1429V16.3057C3.06416 16.3208 3.13332 16.3349 3.20751 16.3479C3.27968 16.363 3.35687 16.3706 3.43907 16.3706C3.54733 16.3706 3.64457 16.3479 3.73078 16.3024C3.81699 16.2592 3.88516 16.1759 3.93528 16.0526C3.9854 15.9292 4.01046 15.7518 4.01046 15.5204V11.0746H4.94273V15.5139C4.94273 15.9206 4.88359 16.2483 4.7653 16.4971C4.64902 16.7481 4.48562 16.9298 4.27511 17.0423C4.0666 17.157 3.82501 17.2143 3.55034 17.2143Z" fill="#2F479B"/>
<path d="M9.97856 13.4403C9.97856 13.8059 9.93646 14.1391 9.85225 14.4398C9.76805 14.7383 9.63973 14.9957 9.46731 15.2121C9.2969 15.4284 9.08037 15.595 8.81773 15.7118C8.55509 15.8265 8.24433 15.8838 7.88546 15.8838C7.52659 15.8838 7.21583 15.8265 6.95319 15.7118C6.69055 15.595 6.47302 15.4284 6.3006 15.2121C6.13018 14.9957 6.00287 14.7372 5.91867 14.4365C5.83446 14.1358 5.79236 13.8016 5.79236 13.4338C5.79236 12.9427 5.86654 12.5154 6.0149 12.152C6.16527 11.7864 6.39583 11.503 6.70659 11.3018C7.01735 11.1006 7.41231 11 7.89147 11C8.36864 11 8.76059 11.1006 9.06734 11.3018C9.37609 11.503 9.60465 11.7864 9.75301 12.152C9.90338 12.5176 9.97856 12.947 9.97856 13.4403ZM6.76974 13.4403C6.76974 13.7713 6.80784 14.0568 6.88402 14.297C6.96221 14.5349 7.08351 14.7188 7.24791 14.8486C7.41231 14.9763 7.62483 15.0401 7.88546 15.0401C8.1501 15.0401 8.36463 14.9763 8.52903 14.8486C8.69343 14.7188 8.81272 14.5349 8.8869 14.297C8.96308 14.0568 9.00118 13.7713 9.00118 13.4403C9.00118 12.9427 8.91497 12.5511 8.74255 12.2656C8.57013 11.98 8.28644 11.8372 7.89147 11.8372C7.62884 11.8372 7.41431 11.9021 7.24791 12.0319C7.08351 12.1596 6.96221 12.3435 6.88402 12.5836C6.80784 12.8216 6.76974 13.1071 6.76974 13.4403Z" fill="#2F479B"/>
<path d="M10.8282 11.0746H12.1965C12.7819 11.0746 13.225 11.1633 13.5258 11.3407C13.8265 11.5181 13.9769 11.8297 13.9769 12.2753C13.9769 12.4549 13.9498 12.6171 13.8957 12.7621C13.8435 12.907 13.7673 13.026 13.6671 13.119C13.5669 13.212 13.4446 13.2726 13.3002 13.3007V13.3332C13.4466 13.3656 13.5789 13.4219 13.6972 13.5019C13.8155 13.5798 13.9097 13.6945 13.9799 13.8459C14.052 13.9952 14.0881 14.1942 14.0881 14.443C14.0881 14.7307 14.023 14.9774 13.8927 15.1829C13.7623 15.3884 13.5759 15.5463 13.3333 15.6567C13.0927 15.7648 12.806 15.8189 12.4732 15.8189H10.8282V11.0746ZM11.7605 12.9535H12.3018C12.5724 12.9535 12.7599 12.9081 12.8641 12.8172C12.9684 12.7242 13.0205 12.5879 13.0205 12.4084C13.0205 12.2266 12.9584 12.0968 12.8341 12.0189C12.7118 11.9389 12.5173 11.8989 12.2507 11.8989H11.7605V12.9535ZM11.7605 13.7518V14.9882H12.3679C12.6486 14.9882 12.8441 14.9298 12.9544 14.8129C13.0646 14.6961 13.1198 14.5393 13.1198 14.3424C13.1198 14.2256 13.0957 14.1228 13.0476 14.0341C12.9995 13.9454 12.9183 13.8762 12.804 13.8264C12.6917 13.7767 12.5363 13.7518 12.3379 13.7518H11.7605Z" fill="#2F479B"/>
<path d="M17.5 14.5014C17.5 14.7827 17.4368 15.0271 17.3105 15.2348C17.1842 15.4425 16.9998 15.6026 16.7572 15.7151C16.5166 15.8276 16.2239 15.8838 15.8791 15.8838C15.7267 15.8838 15.5773 15.873 15.431 15.8514C15.2866 15.8297 15.1473 15.7984 15.0129 15.7573C14.8806 15.714 14.7543 15.661 14.634 15.5982V14.6637C14.8425 14.7632 15.0591 14.853 15.2836 14.933C15.5081 15.0131 15.7307 15.0531 15.9512 15.0531C16.1036 15.0531 16.2259 15.0314 16.3181 14.9882C16.4124 14.9449 16.4805 14.8854 16.5226 14.8097C16.5647 14.734 16.5858 14.6474 16.5858 14.5501C16.5858 14.4311 16.5487 14.3294 16.4745 14.2451C16.4003 14.1607 16.2981 14.0817 16.1678 14.0082C16.0394 13.9346 15.8941 13.8557 15.7317 13.7713C15.6294 13.7194 15.5182 13.6566 15.3979 13.5831C15.2776 13.5073 15.1633 13.4154 15.055 13.3072C14.9468 13.1991 14.8576 13.0682 14.7874 12.9146C14.7192 12.7588 14.6851 12.5728 14.6851 12.3564C14.6851 12.073 14.7453 11.8307 14.8656 11.6295C14.9859 11.4283 15.1573 11.2747 15.3798 11.1687C15.6044 11.0606 15.869 11.0065 16.1738 11.0065C16.4023 11.0065 16.6199 11.0357 16.8264 11.0941C17.0349 11.1504 17.2524 11.2326 17.4789 11.3407L17.1782 12.1228C16.9757 12.0341 16.7943 11.9659 16.6339 11.9184C16.4735 11.8686 16.3101 11.8437 16.1437 11.8437C16.0274 11.8437 15.9282 11.8643 15.846 11.9054C15.7638 11.9443 15.7016 12.0006 15.6595 12.0741C15.6174 12.1455 15.5964 12.2288 15.5964 12.324C15.5964 12.4365 15.6264 12.5317 15.6866 12.6095C15.7487 12.6853 15.841 12.7588 15.9633 12.8302C16.0876 12.9016 16.2419 12.9849 16.4264 13.0801C16.6509 13.1947 16.8424 13.3148 17.0008 13.4403C17.1612 13.5636 17.2845 13.7096 17.3707 13.8784C17.4569 14.0449 17.5 14.2526 17.5 14.5014Z" fill="#2F479B"/>
</svg>
