<svg width="20" height="20" viewBox="0 0 20 20" fill="none" xmlns="http://www.w3.org/2000/svg">
<path d="M12.8571 4.28571C12.8571 6.65265 10.9384 8.57143 8.57143 8.57143C6.20449 8.57143 4.28571 6.65265 4.28571 4.28571C4.28571 1.91878 6.20449 0 8.57143 0C10.9384 0 12.8571 1.91878 12.8571 4.28571ZM8.57143 7.14286C10.1494 7.14286 11.4286 5.86367 11.4286 4.28571C11.4286 2.70776 10.1494 1.42857 8.57143 1.42857C6.99347 1.42857 5.71429 2.70776 5.71429 4.28571C5.71429 5.86367 6.99347 7.14286 8.57143 7.14286Z" fill="#2F479B"/>
<path d="M8.93723 17.1429C8.77591 16.6865 8.66468 16.2064 8.61012 15.7093H1.42857C1.43061 15.3568 1.64822 14.3006 2.61728 13.3316C3.54908 12.3998 5.30126 11.4286 8.57141 11.4286C8.94355 11.4286 9.29604 11.4411 9.62989 11.4648C9.95154 10.9772 10.3378 10.536 10.7765 10.1533C10.1101 10.0545 9.37712 10 8.57143 10C1.42857 10 0 14.2857 0 15.7143C0 17.1429 1.42857 17.1429 1.42857 17.1429H8.93723Z" fill="#2F479B"/>
<path d="M15 20C17.7614 20 20 17.7614 20 15C20 12.2386 17.7614 10 15 10C12.2386 10 10 12.2386 10 15C10 17.7614 12.2386 20 15 20ZM14.0765 13.0664L15 13.9898L15.9235 13.0664C16.2024 12.7874 16.6547 12.7874 16.9336 13.0664C17.2126 13.3453 17.2126 13.7976 16.9336 14.0765L16.0102 15L16.9336 15.9235C17.2126 16.2024 17.2126 16.6547 16.9336 16.9336C16.6547 17.2126 16.2024 17.2126 15.9235 16.9336L15 16.0102L14.0765 16.9336C13.7976 17.2126 13.3453 17.2126 13.0664 16.9336C12.7874 16.6547 12.7874 16.2024 13.0664 15.9235L13.9898 15L13.0664 14.0765C12.7874 13.7976 12.7874 13.3453 13.0664 13.0664C13.3453 12.7874 13.7976 12.7874 14.0765 13.0664Z" fill="#2F479B"/>
</svg>
