<svg width="20" height="20" viewBox="0 0 20 20" fill="none" xmlns="http://www.w3.org/2000/svg">
<path d="M13.5669 10.1831C13.811 10.4271 13.811 10.8229 13.5669 11.0669L9.81694 14.8169C9.69973 14.9342 9.54076 15 9.375 15C9.20924 15 9.05027 14.9342 8.93306 14.8169L7.05806 12.9419C6.81398 12.6979 6.81398 12.3021 7.05806 12.0581C7.30214 11.814 7.69786 11.814 7.94194 12.0581L9.375 13.4911L12.6831 10.1831C12.9271 9.93898 13.3229 9.93898 13.5669 10.1831Z" fill="#2F479B"/>
<path d="M4.375 0C4.72018 0 5 0.279822 5 0.625V1.25H15V0.625C15 0.279822 15.2798 0 15.625 0C15.9702 0 16.25 0.279822 16.25 0.625V1.25H17.5C18.8807 1.25 20 2.36929 20 3.75V17.5C20 18.8807 18.8807 20 17.5 20H2.5C1.11929 20 0 18.8807 0 17.5V3.75C0 2.36929 1.11929 1.25 2.5 1.25H3.75V0.625C3.75 0.279822 4.02982 0 4.375 0ZM2.5 2.5C1.80964 2.5 1.25 3.05964 1.25 3.75V17.5C1.25 18.1904 1.80964 18.75 2.5 18.75H17.5C18.1904 18.75 18.75 18.1904 18.75 17.5V3.75C18.75 3.05964 18.1904 2.5 17.5 2.5H2.5Z" fill="#2F479B"/>
<path d="M3.125 5C3.125 4.65482 3.40482 4.375 3.75 4.375H16.25C16.5952 4.375 16.875 4.65482 16.875 5V6.25C16.875 6.59518 16.5952 6.875 16.25 6.875H3.75C3.40482 6.875 3.125 6.59518 3.125 6.25V5Z" fill="#2F479B"/>
</svg>
