<svg width="16" height="17" viewBox="0 0 16 17" fill="none" xmlns="http://www.w3.org/2000/svg">
<path d="M15.9995 8.49927C15.9995 12.9175 12.4178 16.4993 7.99951 16.4993C3.58123 16.4993 -0.000488281 12.9175 -0.000488281 8.49927C-0.000488281 4.08099 3.58123 0.499268 7.99951 0.499268C12.4178 0.499268 15.9995 4.08099 15.9995 8.49927ZM12.0298 5.46894C11.7369 5.17604 11.2621 5.17604 10.9692 5.46894C10.9621 5.47601 10.9555 5.4835 10.9493 5.49137L7.47691 9.91601L5.38339 7.82249C5.09049 7.5296 4.61562 7.5296 4.32273 7.82249C4.02983 8.11538 4.02983 8.59026 4.32273 8.88315L6.96918 11.5296C7.26207 11.8225 7.73694 11.8225 8.02984 11.5296C8.03636 11.5231 8.04251 11.5162 8.04828 11.509L12.0405 6.51874C12.3227 6.22508 12.3191 5.75824 12.0298 5.46894Z" fill="white"/>
</svg>
