<svg width="16" height="17" viewBox="0 0 16 17" fill="none" xmlns="http://www.w3.org/2000/svg">
<path d="M6.35946 1.99118C6.44231 1.03879 7.58083 0.302977 8.80717 0.546146L9.14262 0.612663C9.73601 0.730326 10.2641 1.07688 10.4404 1.59441C10.7233 2.42493 11.1247 4.15077 10.521 6.18412C10.6954 6.16519 10.8862 6.14737 11.0893 6.13273C12.0035 6.06681 13.2306 6.06019 14.3176 6.34759C14.9827 6.52341 15.5935 7.03994 15.8568 7.64252C16.0936 8.18438 16.063 8.82506 15.5567 9.40664C15.632 9.5271 15.6899 9.65281 15.7342 9.7757C15.8332 10.0507 15.8792 10.353 15.8792 10.647C15.8792 10.9411 15.8332 11.2434 15.7342 11.5184C15.6847 11.6556 15.6183 11.7963 15.5296 11.9293C15.7455 12.3229 15.6662 12.7629 15.5254 13.098C15.3871 13.4272 15.1569 13.7479 14.8984 14.0148C14.9677 14.1699 14.9969 14.3325 14.9969 14.4876C14.9969 14.7989 14.8823 15.1237 14.6718 15.4159C14.2417 16.0129 13.3924 16.4993 12.1899 16.4993H7.69873C6.92285 16.4993 6.32691 16.4165 5.81799 16.2775C5.31424 16.14 4.92229 15.9537 4.57226 15.7845L4.51118 15.7549C3.86426 15.4417 3.22986 15.1345 1.85749 15.0191C0.875077 14.9365 -0.000488281 14.306 -0.000488281 13.4466V9.37446C-0.000488281 8.50912 0.87914 7.91697 1.74073 7.73055C2.83006 7.49487 3.76046 6.92972 4.47634 6.2952C5.19513 5.6581 5.64958 4.99368 5.8093 4.62815C6.0651 4.04278 6.26635 3.06147 6.35946 1.99118Z" fill="white"/>
</svg>
