<svg width="16" height="17" viewBox="0 0 16 17" fill="none" xmlns="http://www.w3.org/2000/svg">
<path d="M15.9995 8.49927C15.9995 12.9175 12.4178 16.4993 7.99951 16.4993C3.58123 16.4993 -0.000488281 12.9175 -0.000488281 8.49927C-0.000488281 4.08099 3.58123 0.499268 7.99951 0.499268C12.4178 0.499268 15.9995 4.08099 15.9995 8.49927ZM5.49585 6.53198H6.32033C6.4584 6.53198 6.56819 6.4194 6.58674 6.28258C6.67569 5.62645 7.12601 5.14819 7.92873 5.14819C8.61428 5.14819 9.2427 5.49097 9.2427 6.31616C9.2427 6.95093 8.86818 7.24292 8.27785 7.68726C7.605 8.17603 7.0718 8.74731 7.10988 9.67407L7.11285 9.89088C7.11473 10.0276 7.22609 10.1375 7.36283 10.1375H8.17385C8.31192 10.1375 8.42385 10.0255 8.42385 9.88745V9.78198C8.42385 9.0647 8.6968 8.85522 9.43313 8.29663C10.0425 7.83325 10.6773 7.31909 10.6773 6.23999C10.6773 4.72925 9.40139 3.99927 8.0049 3.99927C6.73782 3.99927 5.34915 4.58988 5.25462 6.28541C5.24703 6.42163 5.35942 6.53198 5.49585 6.53198ZM7.82082 12.9749C8.4302 12.9749 8.84914 12.5813 8.84914 12.0481C8.84914 11.4958 8.4302 11.1086 7.82082 11.1086C7.23684 11.1086 6.81154 11.4958 6.81154 12.0481C6.81154 12.5813 7.23684 12.9749 7.82082 12.9749Z" fill="white"/>
</svg>
