<svg width="16" height="17" viewBox="0 0 16 17" fill="none" xmlns="http://www.w3.org/2000/svg">
<path d="M15.9996 8.49902C15.9996 12.9173 12.4179 16.499 7.99963 16.499C3.58136 16.499 -0.000366211 12.9173 -0.000366211 8.49902C-0.000366211 4.08075 3.58136 0.499023 7.99963 0.499023C12.4179 0.499023 15.9996 4.08075 15.9996 8.49902ZM5.35319 5.14547C5.15793 4.95021 4.84134 4.95021 4.64608 5.14547C4.45082 5.34073 4.45082 5.65731 4.64608 5.85258L7.29253 8.49902L4.64608 11.1455C4.45082 11.3407 4.45082 11.6573 4.64608 11.8526C4.84134 12.0478 5.15793 12.0478 5.35319 11.8526L7.99963 9.20613L10.6461 11.8526C10.8413 12.0478 11.1579 12.0478 11.3532 11.8526C11.5484 11.6573 11.5484 11.3407 11.3532 11.1455L8.70674 8.49902L11.3532 5.85258C11.5484 5.65731 11.5484 5.34073 11.3532 5.14547C11.1579 4.95021 10.8413 4.95021 10.6461 5.14547L7.99963 7.79192L5.35319 5.14547Z" fill="white"/>
</svg>
