<svg width="16" height="17" viewBox="0 0 16 17" fill="none" xmlns="http://www.w3.org/2000/svg">
<g clip-path="url(#clip0_4096_18268)">
<path d="M15.9998 8.49918C15.9998 12.9175 12.418 16.4992 7.99976 16.4992C3.58148 16.4992 -0.000244141 12.9175 -0.000244141 8.49918C-0.000244141 4.0809 3.58148 0.499176 7.99976 0.499176C12.418 0.499176 15.9998 4.0809 15.9998 8.49918ZM7.99976 3.99918C7.99976 3.72303 7.7759 3.49918 7.49976 3.49918C7.22361 3.49918 6.99976 3.72303 6.99976 3.99918V9.49918C6.99976 9.6786 7.0959 9.84428 7.25169 9.9333L10.7517 11.9333C10.9914 12.0703 11.2969 11.987 11.4339 11.7472C11.5709 11.5075 11.4876 11.2021 11.2478 11.0651L7.99976 9.20901V3.99918Z" fill="white"/>
</g>
<defs>
<clipPath id="clip0_4096_18268">
<rect width="16" height="16" fill="white" transform="translate(0 0.5)"/>
</clipPath>
</defs>
</svg>
