<svg width="50" height="50" viewBox="0 0 50 50" fill="none" xmlns="http://www.w3.org/2000/svg">
<g filter="url(#filter0_d_4273_28987)">
<circle cx="25" cy="21" r="21" fill="#2F479B"/>
</g>
<path d="M34.2857 29C34.2857 29 35.5714 29 35.5714 27.6667C35.5714 26.3333 34.2857 22.3333 29.1429 22.3333C24 22.3333 22.7143 26.3333 22.7143 27.6667C22.7143 29 24 29 24 29H34.2857ZM24.0287 27.6667C24.0243 27.6661 24.018 27.6653 24.0105 27.664C24.0069 27.6634 24.0034 27.6627 24 27.662C24.0019 27.31 24.2145 26.2892 24.9762 25.3677C25.6886 24.5058 26.9349 23.6667 29.1429 23.6667C31.3508 23.6667 32.5971 24.5058 33.3095 25.3677C34.0712 26.2892 34.2838 27.31 34.2857 27.662C34.2823 27.6627 34.2788 27.6634 34.2752 27.664C34.2677 27.6653 34.2614 27.6661 34.257 27.6667H24.0287Z" fill="white"/>
<path d="M29.1429 19.6667C30.563 19.6667 31.7143 18.4728 31.7143 17C31.7143 15.5272 30.563 14.3333 29.1429 14.3333C27.7227 14.3333 26.5714 15.5272 26.5714 17C26.5714 18.4728 27.7227 19.6667 29.1429 19.6667ZM33 17C33 19.2091 31.2731 21 29.1429 21C27.0126 21 25.2857 19.2091 25.2857 17C25.2857 14.7909 27.0126 13 29.1429 13C31.2731 13 33 14.7909 33 17Z" fill="white"/>
<path d="M23.9176 22.7066C23.4447 22.5498 22.9194 22.4357 22.3366 22.3774C22.0482 22.3485 21.7457 22.3333 21.4286 22.3333C16.2857 22.3333 15 26.3333 15 27.6667C15 28.5556 15.4286 29 16.2857 29H21.7067C21.5257 28.6212 21.4286 28.1722 21.4286 27.6667C21.4286 26.3196 21.9136 24.944 22.8298 23.7949C23.1428 23.4023 23.5061 23.0362 23.9176 22.7066ZM21.3258 23.6673C20.5576 24.8848 20.1429 26.2729 20.1429 27.6667H16.2857C16.2857 27.319 16.4969 26.2933 17.2619 25.3677C17.9632 24.5193 19.1818 23.6929 21.3258 23.6673Z" fill="white"/>
<path d="M16.9286 17.6667C16.9286 15.4575 18.6555 13.6667 20.7857 13.6667C22.916 13.6667 24.6429 15.4575 24.6429 17.6667C24.6429 19.8758 22.916 21.6667 20.7857 21.6667C18.6555 21.6667 16.9286 19.8758 16.9286 17.6667ZM20.7857 15C19.3656 15 18.2143 16.1939 18.2143 17.6667C18.2143 19.1394 19.3656 20.3333 20.7857 20.3333C22.2059 20.3333 23.3571 19.1394 23.3571 17.6667C23.3571 16.1939 22.2059 15 20.7857 15Z" fill="white"/>
<defs>
<filter id="filter0_d_4273_28987" x="0" y="0" width="50" height="50" filterUnits="userSpaceOnUse" color-interpolation-filters="sRGB">
<feFlood flood-opacity="0" result="BackgroundImageFix"/>
<feColorMatrix in="SourceAlpha" type="matrix" values="0 0 0 0 0 0 0 0 0 0 0 0 0 0 0 0 0 0 127 0" result="hardAlpha"/>
<feOffset dy="4"/>
<feGaussianBlur stdDeviation="2"/>
<feComposite in2="hardAlpha" operator="out"/>
<feColorMatrix type="matrix" values="0 0 0 0 0 0 0 0 0 0 0 0 0 0 0 0 0 0 0.25 0"/>
<feBlend mode="normal" in2="BackgroundImageFix" result="effect1_dropShadow_4273_28987"/>
<feBlend mode="normal" in="SourceGraphic" in2="effect1_dropShadow_4273_28987" result="shape"/>
</filter>
</defs>
</svg>
