<svg width="50" height="50" viewBox="0 0 50 50" fill="none" xmlns="http://www.w3.org/2000/svg">
<g filter="url(#filter0_d_4273_28970)">
<circle cx="25" cy="21" r="21" fill="#2F479B"/>
</g>
<path d="M20.6539 14.3285C20.4034 14.0065 19.9274 13.9769 19.639 14.2653L18.6051 15.2992C18.1216 15.7827 17.9439 16.4677 18.1551 17.0685C19.0034 19.4812 20.3922 21.7467 22.3227 23.6773C24.2533 25.6078 26.5188 26.9966 28.9315 27.8449C29.5323 28.0561 30.2173 27.8784 30.7008 27.3949L31.7347 26.361C32.0231 26.0726 31.9935 25.5966 31.6715 25.3461L29.3653 23.5524C29.2008 23.4245 28.9866 23.3793 28.7845 23.4298L26.5954 23.9771C26.0008 24.1257 25.3718 23.9515 24.9384 23.5181L22.4819 21.0616C22.0485 20.6282 21.8743 19.9992 22.0229 19.4046L22.5702 17.2155C22.6207 17.0134 22.5755 16.7992 22.4476 16.6347L20.6539 14.3285ZM18.8848 13.5111C19.6269 12.769 20.8515 12.8452 21.4958 13.6736L23.2895 15.9798C23.6187 16.403 23.735 16.9541 23.605 17.4742L23.0577 19.6633C22.9999 19.8944 23.0677 20.1389 23.2361 20.3073L25.6927 22.7639C25.8611 22.9323 26.1056 23.0001 26.3367 22.9423L28.5258 22.395C29.0459 22.265 29.597 22.3813 30.0202 22.7105L32.3264 24.5042C33.1548 25.1485 33.231 26.3731 32.4889 27.1152L31.455 28.1492C30.7153 28.8889 29.6089 29.2137 28.5778 28.8512C26.0175 27.9511 23.6144 26.4774 21.5685 24.4315C19.5226 22.3856 18.0489 19.9825 17.1488 17.4222C16.7863 16.3911 17.1111 15.2847 17.8508 14.545L18.8848 13.5111Z" fill="white"/>
<defs>
<filter id="filter0_d_4273_28970" x="0" y="0" width="50" height="50" filterUnits="userSpaceOnUse" color-interpolation-filters="sRGB">
<feFlood flood-opacity="0" result="BackgroundImageFix"/>
<feColorMatrix in="SourceAlpha" type="matrix" values="0 0 0 0 0 0 0 0 0 0 0 0 0 0 0 0 0 0 127 0" result="hardAlpha"/>
<feOffset dy="4"/>
<feGaussianBlur stdDeviation="2"/>
<feComposite in2="hardAlpha" operator="out"/>
<feColorMatrix type="matrix" values="0 0 0 0 0 0 0 0 0 0 0 0 0 0 0 0 0 0 0.25 0"/>
<feBlend mode="normal" in2="BackgroundImageFix" result="effect1_dropShadow_4273_28970"/>
<feBlend mode="normal" in="SourceGraphic" in2="effect1_dropShadow_4273_28970" result="shape"/>
</filter>
</defs>
</svg>
