<svg width="50" height="50" viewBox="0 0 50 50" fill="none" xmlns="http://www.w3.org/2000/svg">
<g filter="url(#filter0_d_4273_28953)">
<circle cx="25" cy="21" r="21" fill="#2F479B"/>
</g>
<path fill-rule="evenodd" clip-rule="evenodd" d="M15 17.4C15 16.0745 16.1564 15 17.5829 15H27.2689C28.5808 15 29.6643 15.9088 29.8299 17.0858L33.8474 15.4267C34.7015 15.074 35.6634 15.6549 35.6634 16.5233V25.4767C35.6634 26.3451 34.7015 26.926 33.8474 26.5733L29.8299 24.9142C29.6643 26.0912 28.5808 27 27.2689 27H17.5829C16.1564 27 15 25.9255 15 24.6V17.4ZM29.8518 23.6101L34.372 25.4767V16.5233L29.8518 18.3899V23.6101ZM17.5829 16.2C16.8697 16.2 16.2915 16.7373 16.2915 17.4V24.6C16.2915 25.2627 16.8697 25.8 17.5829 25.8H27.2689C27.9822 25.8 28.5604 25.2627 28.5604 24.6V17.4C28.5604 16.7373 27.9822 16.2 27.2689 16.2H17.5829Z" fill="white"/>
<defs>
<filter id="filter0_d_4273_28953" x="0" y="0" width="50" height="50" filterUnits="userSpaceOnUse" color-interpolation-filters="sRGB">
<feFlood flood-opacity="0" result="BackgroundImageFix"/>
<feColorMatrix in="SourceAlpha" type="matrix" values="0 0 0 0 0 0 0 0 0 0 0 0 0 0 0 0 0 0 127 0" result="hardAlpha"/>
<feOffset dy="4"/>
<feGaussianBlur stdDeviation="2"/>
<feComposite in2="hardAlpha" operator="out"/>
<feColorMatrix type="matrix" values="0 0 0 0 0 0 0 0 0 0 0 0 0 0 0 0 0 0 0.25 0"/>
<feBlend mode="normal" in2="BackgroundImageFix" result="effect1_dropShadow_4273_28953"/>
<feBlend mode="normal" in="SourceGraphic" in2="effect1_dropShadow_4273_28953" result="shape"/>
</filter>
</defs>
</svg>
