<svg width="13" height="14" viewBox="0 0 13 14" fill="none" xmlns="http://www.w3.org/2000/svg">
<path d="M13 7C13 10.5899 10.0899 13.5 6.5 13.5C2.91015 13.5 0 10.5899 0 7C0 3.41015 2.91015 0.5 6.5 0.5C10.0899 0.5 13 3.41015 13 7ZM4.34976 4.27524C4.19111 4.11659 3.93389 4.11659 3.77524 4.27524C3.61659 4.43389 3.61659 4.69111 3.77524 4.84976L5.92548 7L3.77524 9.15024C3.61659 9.30889 3.61659 9.56611 3.77524 9.72476C3.93389 9.88341 4.19111 9.88341 4.34976 9.72476L6.5 7.57452L8.65024 9.72476C8.80889 9.88341 9.06611 9.88341 9.22476 9.72476C9.38341 9.56611 9.38341 9.30889 9.22476 9.15024L7.07452 7L9.22476 4.84976C9.38341 4.69111 9.38341 4.43389 9.22476 4.27524C9.06611 4.11659 8.80889 4.11659 8.65024 4.27524L6.5 6.42548L4.34976 4.27524Z" fill="#FF406D"/>
</svg>
