<svg width="40" height="11" viewBox="0 0 40 11" fill="none" xmlns="http://www.w3.org/2000/svg">
<path d="M5.09385 1.88135C4.64951 1.88135 4.25173 1.96175 3.90049 2.12256C3.55348 2.28337 3.25938 2.51611 3.01817 2.8208C2.77695 3.12126 2.59287 3.4873 2.46592 3.91895C2.33897 4.34635 2.27549 4.82878 2.27549 5.36621C2.27549 6.08561 2.37705 6.70557 2.58018 7.22607C2.7833 7.74235 3.09222 8.14014 3.50694 8.41943C3.92165 8.6945 4.44639 8.83203 5.08115 8.83203C5.47471 8.83203 5.85768 8.79395 6.23008 8.71777C6.60248 8.6416 6.98757 8.53792 7.38535 8.40674V9.70166C7.00873 9.84977 6.62787 9.95768 6.24277 10.0254C5.85768 10.0931 5.41335 10.127 4.90977 10.127C3.96185 10.127 3.17474 9.93018 2.54844 9.53662C1.92637 9.14307 1.46087 8.5887 1.15195 7.87354C0.847267 7.15837 0.694923 6.32048 0.694923 5.35986C0.694923 4.65739 0.792254 4.01416 0.986916 3.43018C1.18158 2.84619 1.46511 2.34261 1.8375 1.91943C2.2099 1.49202 2.66904 1.16406 3.21494 0.935547C3.76507 0.702799 4.39349 0.586426 5.1002 0.586426C5.56569 0.586426 6.02272 0.639323 6.47129 0.745117C6.92409 0.84668 7.34304 0.992676 7.72813 1.18311L7.19492 2.43994C6.87331 2.2876 6.53688 2.15641 6.18565 2.04639C5.83441 1.93636 5.47048 1.88135 5.09385 1.88135ZM10.5942 10H9.09617V0.123047H10.5942V10ZM18.8177 6.4707C18.8177 7.05469 18.7416 7.57308 18.5892 8.02588C18.4369 8.47868 18.2147 8.86165 17.9227 9.1748C17.6307 9.48372 17.2795 9.7207 16.869 9.88574C16.4585 10.0465 15.9951 10.127 15.4789 10.127C14.9964 10.127 14.5542 10.0465 14.1522 9.88574C13.7502 9.7207 13.4011 9.48372 13.1048 9.1748C12.8129 8.86165 12.5865 8.47868 12.4256 8.02588C12.2648 7.57308 12.1844 7.05469 12.1844 6.4707C12.1844 5.69629 12.3177 5.04036 12.5843 4.50293C12.8552 3.96126 13.2403 3.54867 13.7396 3.26514C14.239 2.98161 14.8335 2.83984 15.5233 2.83984C16.1708 2.83984 16.7421 2.98161 17.2372 3.26514C17.7323 3.54867 18.1195 3.96126 18.3988 4.50293C18.6781 5.0446 18.8177 5.70052 18.8177 6.4707ZM13.7206 6.4707C13.7206 6.98275 13.7819 7.42074 13.9046 7.78467C14.0316 8.1486 14.2263 8.4279 14.4886 8.62256C14.751 8.81299 15.0895 8.9082 15.5043 8.9082C15.919 8.9082 16.2575 8.81299 16.5199 8.62256C16.7823 8.4279 16.9748 8.1486 17.0975 7.78467C17.2202 7.42074 17.2816 6.98275 17.2816 6.4707C17.2816 5.95866 17.2202 5.5249 17.0975 5.16943C16.9748 4.80973 16.7823 4.53678 16.5199 4.35059C16.2575 4.16016 15.9169 4.06494 15.4979 4.06494C14.8801 4.06494 14.4294 4.2723 14.1459 4.68701C13.8623 5.10173 13.7206 5.69629 13.7206 6.4707ZM25.1243 7.99414C25.1243 8.4554 25.0121 8.84473 24.7878 9.16211C24.5636 9.47949 24.2356 9.7207 23.8039 9.88574C23.3765 10.0465 22.8518 10.127 22.2297 10.127C21.7388 10.127 21.3157 10.091 20.9602 10.019C20.609 9.95133 20.2768 9.84554 19.9636 9.70166V8.41309C20.2979 8.56966 20.6724 8.70508 21.0872 8.81934C21.5061 8.93359 21.9018 8.99072 22.2742 8.99072C22.765 8.99072 23.1184 8.91455 23.3342 8.76221C23.55 8.60563 23.658 8.39827 23.658 8.14014C23.658 7.98779 23.6135 7.85238 23.5247 7.73389C23.44 7.61117 23.2792 7.48633 23.0422 7.35938C22.8095 7.22819 22.4667 7.07161 22.0139 6.88965C21.5696 6.71191 21.1951 6.53418 20.8904 6.35645C20.5857 6.17871 20.3551 5.96501 20.1985 5.71533C20.0419 5.46143 19.9636 5.1377 19.9636 4.74414C19.9636 4.12207 20.2091 3.65023 20.6999 3.32861C21.1951 3.00277 21.8489 2.83984 22.6614 2.83984C23.093 2.83984 23.4993 2.88428 23.8801 2.97314C24.2652 3.05778 24.6418 3.18262 25.01 3.34766L24.5403 4.47119C24.2229 4.33154 23.9034 4.21729 23.5818 4.12842C23.2644 4.03532 22.9407 3.98877 22.6106 3.98877C22.2255 3.98877 21.9314 4.04801 21.7283 4.1665C21.5294 4.28499 21.4299 4.45426 21.4299 4.67432C21.4299 4.83936 21.4786 4.979 21.5759 5.09326C21.6733 5.20752 21.8404 5.32178 22.0774 5.43604C22.3186 5.55029 22.6529 5.69206 23.0803 5.86133C23.4993 6.02214 23.8611 6.19141 24.1658 6.36914C24.4747 6.54264 24.7117 6.75635 24.8767 7.01025C25.0417 7.26416 25.1243 7.59212 25.1243 7.99414ZM29.4059 2.83984C30.0322 2.83984 30.5696 2.96891 31.0182 3.22705C31.4668 3.48519 31.8116 3.85124 32.0529 4.3252C32.2941 4.79915 32.4147 5.36621 32.4147 6.02637V6.82617H27.7238C27.7407 7.50749 27.9226 8.03223 28.2696 8.40039C28.6209 8.76855 29.1118 8.95264 29.7423 8.95264C30.1909 8.95264 30.5929 8.91032 30.9484 8.82568C31.3081 8.73682 31.6783 8.60775 32.0592 8.43848V9.65088C31.708 9.81592 31.3504 9.93652 30.9864 10.0127C30.6225 10.0889 30.1866 10.127 29.6788 10.127C28.9891 10.127 28.3818 9.99365 27.8571 9.72705C27.3365 9.45622 26.9282 9.0542 26.632 8.521C26.34 7.98779 26.194 7.32552 26.194 6.53418C26.194 5.74707 26.3273 5.07845 26.5939 4.52832C26.8605 3.97819 27.235 3.55924 27.7174 3.27148C28.1998 2.98372 28.7627 2.83984 29.4059 2.83984ZM29.4059 3.96338C28.9362 3.96338 28.5553 4.11572 28.2633 4.42041C27.9755 4.7251 27.8063 5.17155 27.7555 5.75977H30.9547C30.9505 5.40853 30.8912 5.09749 30.777 4.82666C30.6669 4.55583 30.4977 4.34424 30.2692 4.19189C30.0449 4.03955 29.7571 3.96338 29.4059 3.96338ZM36.3281 10.127C35.4902 10.127 34.8174 9.82227 34.3096 9.21289C33.806 8.59928 33.5542 7.6958 33.5542 6.50244C33.5542 5.29639 33.8102 4.38444 34.3223 3.7666C34.8385 3.14876 35.5177 2.83984 36.3599 2.83984C36.7153 2.83984 37.0264 2.88851 37.293 2.98584C37.5596 3.07894 37.7881 3.20589 37.9785 3.3667C38.1732 3.52751 38.3382 3.70736 38.4736 3.90625H38.5435C38.5223 3.77507 38.4969 3.58675 38.4673 3.34131C38.4419 3.09163 38.4292 2.861 38.4292 2.64941V0.123047H39.9272V10H38.7593L38.4927 9.0415H38.4292C38.3022 9.24463 38.1414 9.42871 37.9468 9.59375C37.7563 9.75456 37.5278 9.88363 37.2612 9.98096C36.9989 10.0783 36.6878 10.127 36.3281 10.127ZM36.7471 8.91455C37.3861 8.91455 37.8368 8.73047 38.0991 8.3623C38.3615 7.99414 38.4969 7.44189 38.5054 6.70557V6.50879C38.5054 5.72168 38.3784 5.11865 38.1245 4.69971C37.8706 4.27653 37.4072 4.06494 36.7344 4.06494C36.1969 4.06494 35.7865 4.28288 35.5029 4.71875C35.2236 5.15039 35.084 5.75342 35.084 6.52783C35.084 7.30225 35.2236 7.89469 35.5029 8.30518C35.7865 8.71143 36.2012 8.91455 36.7471 8.91455Z" fill="#FF406D"/>
</svg>
