<svg width="31" height="11" viewBox="0 0 31 11" fill="none" xmlns="http://www.w3.org/2000/svg">
<path d="M7.73533 5.271C7.73533 6.31624 7.54067 7.1901 7.15135 7.89258C6.76203 8.59082 6.19708 9.11768 5.45652 9.47314C4.71596 9.82438 3.82306 10 2.77781 10H0.200665V0.719727H3.05711C4.01772 0.719727 4.84715 0.893229 5.54539 1.24023C6.24363 1.58301 6.78318 2.09294 7.16404 2.77002C7.5449 3.44287 7.73533 4.27653 7.73533 5.271ZM6.14842 5.31543C6.14842 4.55371 6.02781 3.92741 5.7866 3.43652C5.54962 2.94564 5.19839 2.58171 4.73289 2.34473C4.27163 2.10352 3.70245 1.98291 3.02537 1.98291H1.7241V8.72412H2.8032C3.92462 8.72412 4.76251 8.43848 5.31688 7.86719C5.87124 7.2959 6.14842 6.44531 6.14842 5.31543ZM13.0135 2.83984C13.132 2.83984 13.2611 2.84619 13.4007 2.85889C13.5404 2.87158 13.661 2.88851 13.7626 2.90967L13.6229 4.30615C13.534 4.28076 13.424 4.26172 13.2928 4.24902C13.1659 4.23633 13.0516 4.22998 12.9501 4.22998C12.6835 4.22998 12.4296 4.27441 12.1883 4.36328C11.9471 4.44792 11.7334 4.5791 11.5472 4.75684C11.361 4.93034 11.215 5.14827 11.1092 5.41064C11.0034 5.67301 10.9505 5.9777 10.9505 6.32471V10H9.4525V2.97314H10.6205L10.8236 4.21094H10.8934C11.0331 3.96126 11.2066 3.73275 11.4139 3.52539C11.6213 3.31803 11.8583 3.15299 12.1249 3.03027C12.3957 2.90332 12.6919 2.83984 13.0135 2.83984ZM17.6887 2.83984C18.5774 2.83984 19.2481 3.03662 19.7009 3.43018C20.1579 3.82373 20.3865 4.43734 20.3865 5.271V10H19.3264L19.0408 9.00342H18.99C18.7911 9.25732 18.5858 9.4668 18.3743 9.63184C18.1627 9.79688 17.9172 9.9196 17.6379 10C17.3629 10.0846 17.0264 10.127 16.6287 10.127C16.2097 10.127 15.8352 10.0508 15.5051 9.89844C15.175 9.74186 14.9148 9.50488 14.7244 9.1875C14.5339 8.87012 14.4387 8.4681 14.4387 7.98145C14.4387 7.25781 14.7074 6.71403 15.2449 6.3501C15.7865 5.98617 16.6033 5.78516 17.6951 5.74707L18.9138 5.70264V5.33447C18.9138 4.84782 18.7996 4.50081 18.571 4.29346C18.3468 4.0861 18.0294 3.98242 17.6189 3.98242C17.2676 3.98242 16.927 4.0332 16.5969 4.13477C16.2668 4.23633 15.9452 4.36117 15.6321 4.50928L15.1496 3.45557C15.4924 3.2736 15.8817 3.12549 16.3176 3.01123C16.7577 2.89697 17.2148 2.83984 17.6887 2.83984ZM18.9075 6.64209L17.9997 6.67383C17.255 6.69922 16.7323 6.82617 16.4319 7.05469C16.1314 7.2832 15.9812 7.59635 15.9812 7.99414C15.9812 8.34115 16.0849 8.59505 16.2922 8.75586C16.4996 8.91243 16.7725 8.99072 17.1111 8.99072C17.6274 8.99072 18.0548 8.84473 18.3933 8.55273C18.7361 8.25651 18.9075 7.82275 18.9075 7.25146V6.64209ZM25.8551 4.10938H24.1476V10H22.6559V4.10938H21.507V3.39209L22.6559 2.9541V2.46533C22.6559 1.86865 22.749 1.39469 22.9352 1.04346C23.1256 0.69222 23.3964 0.44043 23.7477 0.288086C24.1031 0.13151 24.5263 0.0532227 25.0172 0.0532227C25.3388 0.0532227 25.6329 0.0807292 25.8995 0.135742C26.1661 0.186523 26.3904 0.245768 26.5724 0.313477L26.1852 1.44336C26.0413 1.39681 25.8805 1.35449 25.7028 1.31641C25.525 1.27409 25.3346 1.25293 25.1315 1.25293C24.7929 1.25293 24.5432 1.35872 24.3824 1.57031C24.2259 1.7819 24.1476 2.09082 24.1476 2.49707V2.97314H25.8551V4.10938ZM29.54 8.9209C29.7347 8.9209 29.9272 8.90397 30.1177 8.87012C30.3081 8.83203 30.4816 8.7876 30.6382 8.73682V9.8667C30.4731 9.93864 30.2594 10 29.9971 10.0508C29.7347 10.1016 29.4618 10.127 29.1782 10.127C28.7804 10.127 28.4229 10.0614 28.1055 9.93018C27.7881 9.79476 27.5363 9.56413 27.3501 9.23828C27.1639 8.91243 27.0708 8.46175 27.0708 7.88623V4.10938H26.1123V3.44287L27.1406 2.91602L27.6294 1.41162H28.5688V2.97314H30.5811V4.10938H28.5688V7.86719C28.5688 8.22266 28.6577 8.48714 28.8354 8.66064C29.0132 8.83415 29.248 8.9209 29.54 8.9209Z" fill="#979797"/>
</svg>
