<svg width="13" height="14" viewBox="0 0 13 14" fill="none" xmlns="http://www.w3.org/2000/svg">
<path d="M13 7C13 10.5899 10.0899 13.5 6.5 13.5C2.91015 13.5 0 10.5899 0 7C0 3.41015 2.91015 0.5 6.5 0.5C10.0899 0.5 13 3.41015 13 7ZM4.46577 5.40158H5.13567C5.24785 5.40158 5.33705 5.3101 5.35212 5.19894C5.4244 4.66583 5.79028 4.27725 6.44249 4.27725C6.9995 4.27725 7.51009 4.55576 7.51009 5.22623C7.51009 5.74197 7.2058 5.97922 6.72615 6.34024C6.17946 6.73737 5.74623 7.20154 5.77718 7.95453L5.77959 8.13068C5.78111 8.24177 5.8716 8.33102 5.9827 8.33102H6.64165C6.75383 8.33102 6.84477 8.24008 6.84477 8.1279V8.04221C6.84477 7.45941 7.06654 7.28922 7.66481 6.83536C8.15993 6.45886 8.67568 6.04111 8.67568 5.16434C8.67568 3.93686 7.63902 3.34375 6.50438 3.34375C5.47488 3.34375 4.34658 3.82362 4.26978 5.20124C4.26361 5.31192 4.35492 5.40158 4.46577 5.40158ZM6.35481 10.6364C6.84993 10.6364 7.19032 10.3167 7.19032 9.88342C7.19032 9.43472 6.84993 9.12012 6.35481 9.12012C5.88033 9.12012 5.53478 9.43472 5.53478 9.88342C5.53478 10.3167 5.88033 10.6364 6.35481 10.6364Z" fill="#979797"/>
</svg>
