<svg width="48" height="11" viewBox="0 0 48 11" fill="none" xmlns="http://www.w3.org/2000/svg">
<path d="M9.4343 5.34717C9.4343 6.06234 9.34331 6.71403 9.16135 7.30225C8.98361 7.88623 8.71489 8.38981 8.35519 8.81299C7.99549 9.23193 7.54481 9.55566 7.00314 9.78418C6.46148 10.0127 5.82671 10.127 5.09885 10.127C4.35829 10.127 3.71506 10.0127 3.16916 9.78418C2.62749 9.55566 2.17681 9.22982 1.81711 8.80664C1.46164 8.38346 1.19504 7.87777 1.0173 7.28955C0.839569 6.70133 0.750702 6.04964 0.750702 5.33447C0.750702 4.37809 0.907277 3.54443 1.22043 2.8335C1.53781 2.11833 2.01812 1.56396 2.66135 1.17041C3.30881 0.772624 4.12554 0.57373 5.11154 0.57373C6.07639 0.57373 6.87831 0.770508 7.5173 1.16406C8.1563 1.55762 8.63449 2.11198 8.95187 2.82715C9.27349 3.53809 9.4343 4.37809 9.4343 5.34717ZM2.35031 5.34717C2.35031 6.06234 2.44764 6.68229 2.6423 7.20703C2.83696 7.72754 3.1353 8.12956 3.53732 8.41309C3.94357 8.69238 4.46408 8.83203 5.09885 8.83203C5.73784 8.83203 6.25835 8.69238 6.66037 8.41309C7.06239 8.12956 7.35861 7.72754 7.54904 7.20703C7.73947 6.68229 7.83469 6.06234 7.83469 5.34717C7.83469 4.2596 7.61675 3.40902 7.18088 2.79541C6.74924 2.17757 6.05946 1.86865 5.11154 1.86865C4.47678 1.86865 3.95415 2.0083 3.54367 2.2876C3.13742 2.56689 2.83696 2.9668 2.6423 3.4873C2.44764 4.00358 2.35031 4.62354 2.35031 5.34717ZM14.8077 2.83984C15.5991 2.83984 16.2148 3.04508 16.6549 3.45557C17.0992 3.86182 17.3214 4.51562 17.3214 5.41699V10H15.8297V5.69629C15.8297 5.15039 15.7175 4.74202 15.4933 4.47119C15.269 4.19613 14.922 4.05859 14.4522 4.05859C13.7709 4.05859 13.297 4.26807 13.0304 4.68701C12.768 5.10596 12.6368 5.71322 12.6368 6.50879V10H11.1451V2.97314H12.3067L12.5162 3.92529H12.5987C12.7511 3.67985 12.9394 3.47884 13.1637 3.32227C13.3922 3.16146 13.6461 3.04085 13.9254 2.96045C14.2089 2.88005 14.503 2.83984 14.8077 2.83984ZM24.0184 0.123047V2.60498C24.0184 2.86312 24.01 3.11491 23.993 3.36035C23.9803 3.60579 23.9655 3.79622 23.9486 3.93164H24.0311C24.1792 3.6862 24.3612 3.48519 24.577 3.32861C24.7928 3.16781 25.034 3.0472 25.3006 2.9668C25.5715 2.88639 25.8592 2.84619 26.1639 2.84619C26.7014 2.84619 27.1584 2.93717 27.535 3.11914C27.9116 3.29688 28.1994 3.57406 28.3983 3.95068C28.6014 4.32731 28.703 4.81608 28.703 5.41699V10H27.2113V5.69629C27.2113 5.15039 27.0991 4.74202 26.8749 4.47119C26.6506 4.19613 26.3036 4.05859 25.8338 4.05859C25.381 4.05859 25.0213 4.15381 24.7547 4.34424C24.4924 4.53044 24.3041 4.80762 24.1898 5.17578C24.0755 5.53971 24.0184 5.98405 24.0184 6.50879V10H22.5267V0.123047H24.0184ZM36.8821 6.4707C36.8821 7.05469 36.8059 7.57308 36.6536 8.02588C36.5012 8.47868 36.279 8.86165 35.987 9.1748C35.6951 9.48372 35.3438 9.7207 34.9333 9.88574C34.5229 10.0465 34.0595 10.127 33.5432 10.127C33.0608 10.127 32.6186 10.0465 32.2165 9.88574C31.8145 9.7207 31.4654 9.48372 31.1692 9.1748C30.8772 8.86165 30.6508 8.47868 30.49 8.02588C30.3292 7.57308 30.2488 7.05469 30.2488 6.4707C30.2488 5.69629 30.3821 5.04036 30.6487 4.50293C30.9195 3.96126 31.3046 3.54867 31.8039 3.26514C32.3033 2.98161 32.8979 2.83984 33.5876 2.83984C34.2351 2.83984 34.8064 2.98161 35.3015 3.26514C35.7966 3.54867 36.1838 3.96126 36.4631 4.50293C36.7424 5.0446 36.8821 5.70052 36.8821 6.4707ZM31.7849 6.4707C31.7849 6.98275 31.8463 7.42074 31.969 7.78467C32.0959 8.1486 32.2906 8.4279 32.553 8.62256C32.8153 8.81299 33.1539 8.9082 33.5686 8.9082C33.9833 8.9082 34.3218 8.81299 34.5842 8.62256C34.8466 8.4279 35.0391 8.1486 35.1619 7.78467C35.2846 7.42074 35.3459 6.98275 35.3459 6.4707C35.3459 5.95866 35.2846 5.5249 35.1619 5.16943C35.0391 4.80973 34.8466 4.53678 34.5842 4.35059C34.3218 4.16016 33.9812 4.06494 33.5622 4.06494C32.9444 4.06494 32.4937 4.2723 32.2102 4.68701C31.9267 5.10173 31.7849 5.69629 31.7849 6.4707ZM39.964 10H38.4659V0.123047H39.964V10ZM44.3281 10.127C43.4902 10.127 42.8174 9.82227 42.3096 9.21289C41.806 8.59928 41.5542 7.6958 41.5542 6.50244C41.5542 5.29639 41.8102 4.38444 42.3223 3.7666C42.8385 3.14876 43.5177 2.83984 44.3599 2.83984C44.7153 2.83984 45.0264 2.88851 45.293 2.98584C45.5596 3.07894 45.7881 3.20589 45.9785 3.3667C46.1732 3.52751 46.3382 3.70736 46.4736 3.90625H46.5435C46.5223 3.77507 46.4969 3.58675 46.4673 3.34131C46.4419 3.09163 46.4292 2.861 46.4292 2.64941V0.123047H47.9272V10H46.7593L46.4927 9.0415H46.4292C46.3022 9.24463 46.1414 9.42871 45.9468 9.59375C45.7563 9.75456 45.5278 9.88363 45.2612 9.98096C44.9989 10.0783 44.6878 10.127 44.3281 10.127ZM44.7471 8.91455C45.3861 8.91455 45.8368 8.73047 46.0991 8.3623C46.3615 7.99414 46.4969 7.44189 46.5054 6.70557V6.50879C46.5054 5.72168 46.3784 5.11865 46.1245 4.69971C45.8706 4.27653 45.4072 4.06494 44.7344 4.06494C44.1969 4.06494 43.7865 4.28288 43.5029 4.71875C43.2236 5.15039 43.084 5.75342 43.084 6.52783C43.084 7.30225 43.2236 7.89469 43.5029 8.30518C43.7865 8.71143 44.2012 8.91455 44.7471 8.91455Z" fill="#F7B924"/>
</svg>
