<svg width="44" height="11" viewBox="0 0 44 11" fill="none" xmlns="http://www.w3.org/2000/svg">
<path d="M3.47287 0.719727C4.67046 0.719727 5.54432 0.965169 6.09445 1.45605C6.64458 1.94694 6.91965 2.6346 6.91965 3.51904C6.91965 3.92106 6.85617 4.30404 6.72922 4.66797C6.6065 5.02767 6.40337 5.34717 6.11984 5.62646C5.83631 5.90153 5.4618 6.11947 4.99631 6.28027C4.53504 6.44108 3.96587 6.52148 3.28879 6.52148H2.29855V10H0.775116V0.719727H3.47287ZM3.37131 1.98291H2.29855V5.25195H3.1301C3.60829 5.25195 4.01454 5.19694 4.34885 5.08691C4.68316 4.97266 4.93706 4.79281 5.11057 4.54736C5.28407 4.30192 5.37082 3.97819 5.37082 3.57617C5.37082 3.03874 5.2079 2.63883 4.88205 2.37646C4.56043 2.1141 4.05685 1.98291 3.37131 1.98291ZM14.6163 2.97314V10H13.442L13.2389 9.0542H13.1563C13.0082 9.29541 12.8199 9.49642 12.5914 9.65723C12.3629 9.8138 12.109 9.93018 11.8297 10.0063C11.5504 10.0868 11.2563 10.127 10.9474 10.127C10.4184 10.127 9.96559 10.0381 9.58896 9.86035C9.21657 9.67839 8.93092 9.39909 8.73203 9.02246C8.53314 8.64583 8.43369 8.15918 8.43369 7.5625V2.97314H9.93174V7.2832C9.93174 7.8291 10.0418 8.23747 10.2618 8.5083C10.4861 8.77913 10.8331 8.91455 11.3028 8.91455C11.7556 8.91455 12.1153 8.82145 12.3819 8.63525C12.6485 8.44906 12.8368 8.17399 12.9469 7.81006C13.0611 7.44613 13.1183 6.99967 13.1183 6.4707V2.97314H14.6163ZM18.1172 0.123047V2.50342C18.1172 2.77848 18.1087 3.04932 18.0918 3.31592C18.0791 3.57829 18.0664 3.78353 18.0537 3.93164H18.1172C18.3076 3.62695 18.5721 3.37093 18.9106 3.16357C19.2534 2.95199 19.6914 2.84619 20.2246 2.84619C21.0582 2.84619 21.729 3.15299 22.2368 3.7666C22.7446 4.37598 22.9985 5.27946 22.9985 6.47705C22.9985 7.27262 22.8821 7.94124 22.6494 8.48291C22.4166 9.02458 22.0887 9.43506 21.6655 9.71436C21.2466 9.98942 20.7536 10.127 20.1865 10.127C19.6533 10.127 19.2217 10.0296 18.8916 9.83496C18.5657 9.63607 18.3097 9.40544 18.1235 9.14307H18.0156L17.7427 10H16.6255V0.123047H18.1172ZM19.831 4.05859C19.4079 4.05859 19.0714 4.14323 18.8218 4.3125C18.5763 4.48177 18.3986 4.73568 18.2886 5.07422C18.1785 5.40853 18.1214 5.83382 18.1172 6.3501V6.4834C18.1172 7.26628 18.2399 7.86507 18.4853 8.27979C18.735 8.6945 19.1878 8.90186 19.8437 8.90186C20.3642 8.90186 20.7641 8.69238 21.0434 8.27344C21.3227 7.85026 21.4624 7.24512 21.4624 6.45801C21.4624 5.66243 21.3227 5.06364 21.0434 4.66162C20.7684 4.2596 20.3642 4.05859 19.831 4.05859ZM26.0931 10H24.5951V0.123047H26.0931V10ZM29.5876 2.97314V10H28.0959V2.97314H29.5876ZM28.8513 0.281738C29.0798 0.281738 29.2766 0.343099 29.4416 0.46582C29.6109 0.588542 29.6955 0.80013 29.6955 1.10059C29.6955 1.39681 29.6109 1.6084 29.4416 1.73535C29.2766 1.85807 29.0798 1.91943 28.8513 1.91943C28.6143 1.91943 28.4133 1.85807 28.2483 1.73535C28.0875 1.6084 28.0071 1.39681 28.0071 1.10059C28.0071 0.80013 28.0875 0.588542 28.2483 0.46582C28.4133 0.343099 28.6143 0.281738 28.8513 0.281738ZM36.3195 7.99414C36.3195 8.4554 36.2073 8.84473 35.983 9.16211C35.7587 9.47949 35.4308 9.7207 34.9991 9.88574C34.5717 10.0465 34.047 10.127 33.4249 10.127C32.934 10.127 32.5109 10.091 32.1554 10.019C31.8042 9.95133 31.472 9.84554 31.1588 9.70166V8.41309C31.4931 8.56966 31.8676 8.70508 32.2823 8.81934C32.7013 8.93359 33.097 8.99072 33.4694 8.99072C33.9602 8.99072 34.3136 8.91455 34.5294 8.76221C34.7452 8.60563 34.8531 8.39827 34.8531 8.14014C34.8531 7.98779 34.8087 7.85238 34.7198 7.73389C34.6352 7.61117 34.4744 7.48633 34.2374 7.35938C34.0047 7.22819 33.6619 7.07161 33.2091 6.88965C32.7648 6.71191 32.3903 6.53418 32.0856 6.35645C31.7809 6.17871 31.5502 5.96501 31.3937 5.71533C31.2371 5.46143 31.1588 5.1377 31.1588 4.74414C31.1588 4.12207 31.4043 3.65023 31.8951 3.32861C32.3903 3.00277 33.0441 2.83984 33.8566 2.83984C34.2882 2.83984 34.6945 2.88428 35.0753 2.97314C35.4604 3.05778 35.837 3.18262 36.2052 3.34766L35.7355 4.47119C35.4181 4.33154 35.0986 4.21729 34.777 4.12842C34.4596 4.03532 34.1359 3.98877 33.8058 3.98877C33.4207 3.98877 33.1266 4.04801 32.9235 4.1665C32.7246 4.28499 32.6251 4.45426 32.6251 4.67432C32.6251 4.83936 32.6738 4.979 32.7711 5.09326C32.8684 5.20752 33.0356 5.32178 33.2726 5.43604C33.5138 5.55029 33.8481 5.69206 34.2755 5.86133C34.6945 6.02214 35.0563 6.19141 35.361 6.36914C35.6699 6.54264 35.9069 6.75635 36.0719 7.01025C36.2369 7.26416 36.3195 7.59212 36.3195 7.99414ZM39.2935 0.123047V2.60498C39.2935 2.86312 39.285 3.11491 39.2681 3.36035C39.2554 3.60579 39.2406 3.79622 39.2236 3.93164H39.3062C39.4543 3.6862 39.6362 3.48519 39.8521 3.32861C40.0679 3.16781 40.3091 3.0472 40.5757 2.9668C40.8465 2.88639 41.1343 2.84619 41.439 2.84619C41.9764 2.84619 42.4334 2.93717 42.8101 3.11914C43.1867 3.29688 43.4744 3.57406 43.6733 3.95068C43.8765 4.32731 43.978 4.81608 43.978 5.41699V10H42.4863V5.69629C42.4863 5.15039 42.3742 4.74202 42.1499 4.47119C41.9256 4.19613 41.5786 4.05859 41.1089 4.05859C40.6561 4.05859 40.2964 4.15381 40.0298 4.34424C39.7674 4.53044 39.5791 4.80762 39.4648 5.17578C39.3506 5.53971 39.2935 5.98405 39.2935 6.50879V10H37.8018V0.123047H39.2935Z" fill="#14BD66"/>
</svg>
