<svg width="52" height="13" viewBox="0 0 52 13" fill="none" xmlns="http://www.w3.org/2000/svg">
<path d="M0.87122 1.112H2.53922L5.41922 7.784L8.26322 1.112H9.93122L5.38322 11.228L0.87122 1.112ZM11.3721 3.38C11.2521 3.38 11.1321 3.356 11.0121 3.308C10.8921 3.26 10.7841 3.196 10.6881 3.116C10.5921 3.028 10.5161 2.924 10.4601 2.804C10.4041 2.684 10.3761 2.552 10.3761 2.408C10.3761 2.264 10.4041 2.136 10.4601 2.024C10.5161 1.904 10.5921 1.804 10.6881 1.724C10.7841 1.636 10.8921 1.568 11.0121 1.52C11.1321 1.472 11.2521 1.448 11.3721 1.448C11.5001 1.448 11.6241 1.472 11.7441 1.52C11.8641 1.568 11.9681 1.636 12.0561 1.724C12.1521 1.804 12.2281 1.904 12.2841 2.024C12.3401 2.136 12.3681 2.264 12.3681 2.408C12.3681 2.552 12.3401 2.684 12.2841 2.804C12.2281 2.924 12.1521 3.028 12.0561 3.116C11.9601 3.196 11.8521 3.26 11.7321 3.308C11.6121 3.356 11.4921 3.38 11.3721 3.38ZM10.6521 11V4.544H12.1041V11H10.6521ZM19.8147 7.556C19.8147 7.668 19.8107 7.788 19.8027 7.916C19.7947 8.044 19.7827 8.156 19.7667 8.252H14.8107C14.8507 8.476 14.9187 8.684 15.0147 8.876C15.1107 9.068 15.2387 9.236 15.3987 9.38C15.5667 9.524 15.7707 9.636 16.0107 9.716C16.2507 9.796 16.5307 9.836 16.8507 9.836C17.2507 9.836 17.6347 9.78 18.0027 9.668C18.3787 9.548 18.8027 9.364 19.2747 9.116V10.508C19.1947 10.572 19.0747 10.644 18.9147 10.724C18.7627 10.796 18.5787 10.864 18.3627 10.928C18.1547 10.992 17.9227 11.044 17.6667 11.084C17.4107 11.132 17.1387 11.156 16.8507 11.156C16.2907 11.156 15.7907 11.068 15.3507 10.892C14.9107 10.716 14.5387 10.476 14.2347 10.172C13.9307 9.86 13.6987 9.5 13.5387 9.092C13.3867 8.676 13.3107 8.236 13.3107 7.772C13.3107 7.3 13.3867 6.86 13.5387 6.452C13.6987 6.044 13.9227 5.688 14.2107 5.384C14.4987 5.072 14.8467 4.828 15.2547 4.652C15.6627 4.476 16.1227 4.388 16.6347 4.388C16.9947 4.388 17.3627 4.448 17.7387 4.568C18.1227 4.688 18.4667 4.876 18.7707 5.132C19.0747 5.388 19.3227 5.716 19.5147 6.116C19.7147 6.516 19.8147 6.996 19.8147 7.556ZM18.2787 7.1C18.2627 6.932 18.2147 6.768 18.1347 6.608C18.0627 6.44 17.9587 6.288 17.8227 6.152C17.6867 6.016 17.5147 5.908 17.3067 5.828C17.1067 5.74 16.8707 5.696 16.5987 5.696C16.1267 5.696 15.7427 5.828 15.4467 6.092C15.1587 6.356 14.9627 6.692 14.8587 7.1H18.2787ZM19.8603 4.544H21.5163L23.0763 8.168L24.8523 4.28L26.6403 8.168L28.1883 4.544H29.8323L26.6163 11.24L24.8283 7.232L22.9803 11.24L19.8603 4.544ZM38.2274 11.192C37.4914 11.192 36.7994 11.06 36.1514 10.796C35.5114 10.532 34.9514 10.172 34.4714 9.716C33.9914 9.252 33.6114 8.708 33.3314 8.084C33.0594 7.46 32.9234 6.784 32.9234 6.056C32.9234 5.328 33.0594 4.652 33.3314 4.028C33.6114 3.404 33.9914 2.864 34.4714 2.408C34.9514 1.944 35.5114 1.584 36.1514 1.328C36.7994 1.064 37.4954 0.931999 38.2394 0.931999C38.9434 0.931999 39.5674 1.028 40.1114 1.22C40.6554 1.412 41.0994 1.624 41.4434 1.856V3.56C41.2514 3.376 41.0314 3.208 40.7834 3.056C40.5354 2.896 40.2714 2.76 39.9914 2.648C39.7114 2.536 39.4194 2.452 39.1154 2.396C38.8194 2.332 38.5234 2.3 38.2274 2.3C37.6834 2.3 37.1794 2.396 36.7154 2.588C36.2594 2.78 35.8634 3.048 35.5274 3.392C35.1994 3.728 34.9394 4.124 34.7474 4.58C34.5634 5.036 34.4714 5.528 34.4714 6.056C34.4714 6.584 34.5634 7.076 34.7474 7.532C34.9394 7.988 35.1994 8.388 35.5274 8.732C35.8634 9.068 36.2594 9.332 36.7154 9.524C37.1794 9.716 37.6834 9.812 38.2274 9.812C38.8354 9.812 39.4234 9.696 39.9914 9.464C40.5674 9.232 41.0514 8.932 41.4434 8.564V10.268C41.0834 10.5 40.6314 10.712 40.0874 10.904C39.5514 11.096 38.9314 11.192 38.2274 11.192ZM41.9872 1.112H43.6552L46.5352 7.784L49.3792 1.112H51.0472L46.4992 11.228L41.9872 1.112Z" fill="#2B80FD"/>
<path d="M0.91922 12.2H50.9992V12.8H0.91922V12.2Z" fill="#2B80FD"/>
</svg>
