<svg width="14" height="16" viewBox="0 0 14 16" fill="none" xmlns="http://www.w3.org/2000/svg">
<path fill-rule="evenodd" clip-rule="evenodd" d="M14 14V4.5L9.5 0H4C2.89543 0 2 0.89543 2 2V11H3V2C3 1.44772 3.44772 1 4 1H9.5V3C9.5 3.82843 10.1716 4.5 11 4.5H13V14C13 14.5523 12.5523 15 12 15H8V16H12C13.1046 16 14 15.1046 14 14ZM0.805664 13.6928C0.805664 13.4447 0.839844 13.2338 0.908203 13.06C0.978516 12.8861 1.0791 12.7533 1.20996 12.6615C1.34277 12.5697 1.50098 12.5238 1.68457 12.5238C1.83496 12.5238 1.96777 12.5561 2.08301 12.6205C2.19824 12.683 2.28906 12.7699 2.35547 12.8812C2.42383 12.9926 2.46387 13.1195 2.47559 13.2621H3.24023V13.227V13.1889C3.23047 12.9896 3.18457 12.809 3.10254 12.6469C3.02246 12.4848 2.91309 12.3441 2.77441 12.225C2.63574 12.1059 2.47266 12.015 2.28516 11.9525C2.09961 11.8881 1.89746 11.8559 1.67871 11.8559C1.32324 11.8559 1.01953 11.9301 0.767578 12.0785C0.517578 12.227 0.327148 12.4379 0.196289 12.7113C0.0654297 12.9848 0 13.3109 0 13.6898V14.1879C0 14.5668 0.0644531 14.892 0.193359 15.1635C0.324219 15.435 0.514648 15.6439 0.764648 15.7904C1.01465 15.935 1.31934 16.0072 1.67871 16.0072C1.97168 16.0072 2.2334 15.9525 2.46387 15.8432C2.69434 15.7338 2.87793 15.5824 3.01465 15.3891C3.15137 15.1937 3.22656 14.9691 3.24023 14.7152V14.6771V14.6391H2.47559C2.46387 14.7758 2.4248 14.8969 2.3584 15.0023C2.29199 15.1078 2.20117 15.1908 2.08594 15.2514C1.9707 15.31 1.83691 15.3393 1.68457 15.3393C1.49902 15.3393 1.33984 15.2953 1.20703 15.2074C1.07617 15.1176 0.976562 14.9867 0.908203 14.8148C0.839844 14.643 0.805664 14.434 0.805664 14.1879V13.6928ZM6.29102 15.999H5.33887L4 12H4.91699L5.81348 15.1377H5.85156L6.73926 12H7.61816L6.29102 15.999Z" fill="#2B80FD"/>
</svg>
