<svg width="14" height="16" viewBox="0 0 14 16" fill="none" xmlns="http://www.w3.org/2000/svg">
<path d="M0.571428 16C0.255837 16 0 15.7442 0 15.4286C0 15.113 0.255837 14.8571 0.571428 14.8571H1.71428V13.7143C1.71428 11.6685 2.90889 9.90276 4.63605 9.07462C4.96736 8.91575 5.14285 8.64361 5.14285 8.40094V7.59906C5.14285 7.35639 4.96736 7.08425 4.63605 6.92539C2.90889 6.09724 1.71428 4.33154 1.71428 2.28571V1.14286H0.571428C0.255837 1.14286 0 0.887018 0 0.571428C0 0.255837 0.255837 0 0.571428 0L13.1428 2.5068e-05C13.4584 2.94276e-05 13.7143 0.25587 13.7143 0.571461C13.7143 0.887052 13.4584 1.14288 13.1428 1.14288L12 1.14286V2.28571C12 4.33154 10.8054 6.09724 9.07821 6.92539C8.7469 7.08425 8.57141 7.35639 8.57141 7.59906V8.40094C8.57141 8.64361 8.7469 8.91575 9.07821 9.07462C10.8054 9.90276 12 11.6685 12 13.7143V14.8571H13.1428C13.4584 14.8571 13.7143 15.113 13.7143 15.4286C13.7143 15.7442 13.4584 16 13.1428 16H0.571428ZM2.85714 1.14288V2.28574C2.85714 2.89908 2.99518 3.48034 3.24203 4.00004H10.4722C10.7191 3.48034 10.8571 2.89908 10.8571 2.28574V1.14288H2.85714ZM6.2857 8.40096C6.2857 9.20122 5.73927 9.8131 5.13017 10.1052C3.78444 10.7504 2.85714 12.1246 2.85714 13.7143C2.85714 13.7143 3.84656 12.2302 6.2857 12.0238V8.40096ZM7.42856 8.40096V12.0238C9.86771 12.2302 10.8571 13.7143 10.8571 13.7143C10.8571 12.1246 9.92983 10.7504 8.5841 10.1052C7.97499 9.8131 7.42856 9.20122 7.42856 8.40096Z" fill="#FF406D"/>
</svg>
