<svg width="32" height="24" viewBox="0 0 32 24" fill="none" xmlns="http://www.w3.org/2000/svg">
<path d="M14 24C14 24 12 24 12 22C12 20 14 14 22 14C30 14 32 20 32 22C32 24 30 24 30 24H14Z" fill="#2F479B"/>
<path d="M22 12C25.3137 12 28 9.31371 28 6C28 2.68629 25.3137 0 22 0C18.6863 0 16 2.68629 16 6C16 9.31371 18.6863 12 22 12Z" fill="#2F479B"/>
<path d="M10.4327 24C10.1511 23.4318 10 22.7583 10 22C10 19.2891 11.3581 16.5011 13.8719 14.5599C12.7722 14.2082 11.4902 14 10 14C2 14 0 20 0 22C0 24 2 24 2 24H10.4327Z" fill="#2F479B"/>
<path d="M9 12C11.7614 12 14 9.76142 14 7C14 4.23858 11.7614 2 9 2C6.23858 2 4 4.23858 4 7C4 9.76142 6.23858 12 9 12Z" fill="#2F479B"/>
</svg>
