<svg width="19" height="16" viewBox="0 0 19 16" fill="none" xmlns="http://www.w3.org/2000/svg">
<path d="M9.38451 0.0536096C9.23134 -0.0178699 9.05438 -0.0178699 8.90121 0.0536096L0.329781 4.05361C0.12333 4.14995 -0.00616576 4.35973 0.000226279 4.58746C0.00661828 4.8152 0.147677 5.01737 0.359207 5.10199L8.93064 8.53056C9.06687 8.58505 9.21885 8.58505 9.35508 8.53056L16 5.87259V12.5714C15.3688 12.5714 14.8571 13.0831 14.8571 13.7143V16H18.2857V13.7143C18.2857 13.0831 17.774 12.5714 17.1429 12.5714V5.41545L17.9265 5.10199C18.138 5.01737 18.2791 4.8152 18.2855 4.58746C18.2919 4.35973 18.1624 4.14995 17.9559 4.05361L9.38451 0.0536096Z" fill="#14BD66"/>
<path d="M4.77207 8.03638C4.62342 7.98064 4.45827 7.98925 4.31622 8.06016C4.17417 8.13107 4.06802 8.25788 4.02322 8.41019L3.45179 10.353C3.36863 10.6358 3.51414 10.9354 3.78778 11.0448L8.93064 13.102C9.06687 13.1565 9.21885 13.1565 9.35508 13.102L14.4979 11.0448C14.7716 10.9354 14.9171 10.6358 14.8339 10.353L14.2625 8.41019C14.2177 8.25788 14.1116 8.13107 13.9695 8.06016C13.8274 7.98925 13.6623 7.98064 13.5136 8.03638L9.14286 9.67543L4.77207 8.03638Z" fill="#14BD66"/>
</svg>
