<svg width="42" height="42" viewBox="0 0 42 42" fill="none" xmlns="http://www.w3.org/2000/svg">
<rect width="42" height="42" rx="4" fill="#F1F4F6"/>
<path d="M21 21C24.5899 21 27.5 18.0899 27.5 14.5C27.5 10.9101 24.5899 8 21 8C17.4101 8 14.5 10.9101 14.5 14.5C14.5 18.0899 17.4101 21 21 21ZM25.3333 14.5C25.3333 16.8932 23.3932 18.8333 21 18.8333C18.6068 18.8333 16.6667 16.8932 16.6667 14.5C16.6667 12.1068 18.6068 10.1667 21 10.1667C23.3932 10.1667 25.3333 12.1068 25.3333 14.5Z" fill="#2F479B"/>
<path d="M34 31.8333C34 34 31.8333 34 31.8333 34H10.1667C10.1667 34 8 34 8 31.8333C8 29.6667 10.1667 23.1667 21 23.1667C31.8333 23.1667 34 29.6667 34 31.8333ZM31.8333 31.8258C31.8302 31.2911 31.5002 29.6893 30.0304 28.2196C28.6172 26.8063 25.9597 25.3333 21 25.3333C16.0402 25.3333 13.3828 26.8063 11.9695 28.2196C10.4998 29.6893 10.1698 31.2911 10.1667 31.8258H31.8333Z" fill="#2F479B"/>
</svg>
