<svg width="13" height="16" viewBox="0 0 13 16" fill="none" xmlns="http://www.w3.org/2000/svg">
<path d="M2.03094 0.828853C3.17656 0.308119 4.72175 0 6.4 0C8.07824 0 9.62344 0.308119 10.7691 0.828853C11.8665 1.3277 12.8 2.12587 12.8 3.2C12.8 4.27413 11.8665 5.0723 10.7691 5.57115C9.62344 6.09188 8.07824 6.4 6.4 6.4C4.72175 6.4 3.17656 6.09188 2.03094 5.57115C0.933476 5.0723 0 4.27413 0 3.2C0 2.12587 0.933476 1.3277 2.03094 0.828853Z" fill="#45AFF6"/>
<path d="M0 5.50508V6.4C0 7.47413 0.933476 8.2723 2.03094 8.77115C3.17656 9.29188 4.72175 9.6 6.4 9.6C8.07824 9.6 9.62344 9.29188 10.7691 8.77115C11.8665 8.2723 12.8 7.47413 12.8 6.4V5.50508C12.3122 5.96562 11.7288 6.30658 11.2104 6.54221C9.8969 7.13927 8.19464 7.46667 6.4 7.46667C4.60535 7.46667 2.9031 7.13927 1.58955 6.54221C1.07118 6.30658 0.487751 5.96562 0 5.50508Z" fill="#45AFF6"/>
<path d="M0 8.70508V9.6C0 10.6741 0.933476 11.4723 2.03094 11.9711C3.17656 12.4919 4.72175 12.8 6.4 12.8C8.07824 12.8 9.62344 12.4919 10.7691 11.9711C11.8665 11.4723 12.8 10.6741 12.8 9.6V8.70508C12.3122 9.16561 11.7288 9.50658 11.2104 9.74221C9.8969 10.3393 8.19464 10.6667 6.4 10.6667C4.60535 10.6667 2.9031 10.3393 1.58955 9.74221C1.07118 9.50658 0.487751 9.16561 0 8.70508Z" fill="#45AFF6"/>
<path d="M0 11.9051V12.8C0 13.8741 0.933476 14.6723 2.03094 15.1711C3.17656 15.6919 4.72175 16 6.4 16C8.07824 16 9.62344 15.6919 10.7691 15.1711C11.8665 14.6723 12.8 13.8741 12.8 12.8V11.9051C12.3122 12.3656 11.7288 12.7066 11.2104 12.9422C9.8969 13.5393 8.19464 13.8667 6.4 13.8667C4.60535 13.8667 2.9031 13.5393 1.58955 12.9422C1.07118 12.7066 0.487751 12.3656 0 11.9051Z" fill="#45AFF6"/>
</svg>
