<svg width="16" height="8" viewBox="0 0 16 8" fill="none" xmlns="http://www.w3.org/2000/svg">
<path d="M6.11906 0.571289H3.42857C1.53502 0.571289 0 2.10631 0 3.99986C0 5.89341 1.53502 7.42843 3.42857 7.42843H6.85714C8.75069 7.42843 10.2857 5.89341 10.2857 3.99986C10.2857 3.59913 10.217 3.21447 10.0906 2.857H9.14286C9.0443 2.857 8.94866 2.86948 8.85742 2.89294C9.03929 3.22089 9.14286 3.59828 9.14286 3.99986C9.14286 5.26223 8.11951 6.28557 6.85714 6.28557H3.42857C2.16621 6.28557 1.14286 5.26223 1.14286 3.99986C1.14286 2.7375 2.16621 1.71415 3.42857 1.71415H5.183C5.43185 1.28397 5.74878 0.898105 6.11906 0.571289Z" fill="#2F2E2E"/>
<path d="M9.14286 0.571289C7.24931 0.571289 5.71429 2.10631 5.71429 3.99986C5.71429 4.40059 5.78303 4.78526 5.90938 5.14272H7.16293C6.96845 4.80652 6.85714 4.41619 6.85714 3.99986C6.85714 2.7375 7.88049 1.71415 9.14286 1.71415H12.5714C13.8338 1.71415 14.8571 2.7375 14.8571 3.99986C14.8571 5.26223 13.8338 6.28557 12.5714 6.28557H10.817C10.5682 6.71575 10.2512 7.10162 9.88094 7.42843H12.5714C14.465 7.42843 16 5.89341 16 3.99986C16 2.10631 14.465 0.571289 12.5714 0.571289H9.14286Z" fill="#2F2E2E"/>
</svg>
