<svg width="16" height="13" viewBox="0 0 16 13" fill="none" xmlns="http://www.w3.org/2000/svg">
<path d="M15 12.1815C15 12.1815 16 12.1815 16 11.1815C16 10.1815 15 7.18149 11 7.18149C7 7.18149 6 10.1815 6 11.1815C6 12.1815 7 12.1815 7 12.1815H15ZM7.02235 11.1815C7.01888 11.1811 7.01403 11.1804 7.00815 11.1795C7.00538 11.179 7.00266 11.1785 7.00001 11.178C7.00146 10.914 7.16687 10.1484 7.75926 9.45728C8.31334 8.81085 9.28269 8.18149 11 8.18149C12.7173 8.18149 13.6867 8.81085 14.2407 9.45728C14.8331 10.1484 14.9985 10.914 15 11.178C14.9973 11.1785 14.9946 11.179 14.9919 11.1795C14.986 11.1804 14.9811 11.1811 14.9777 11.1815H7.02235Z" fill="#2F2E2E"/>
<path d="M11 5.18149C12.1046 5.18149 13 4.28606 13 3.18149C13 2.07692 12.1046 1.18149 11 1.18149C9.89543 1.18149 9 2.07692 9 3.18149C9 4.28606 9.89543 5.18149 11 5.18149ZM14 3.18149C14 4.83834 12.6569 6.18149 11 6.18149C9.34315 6.18149 8 4.83834 8 3.18149C8 1.52463 9.34315 0.181488 11 0.181488C12.6569 0.181488 14 1.52463 14 3.18149Z" fill="#2F2E2E"/>
<path d="M6.93593 7.46145C6.56813 7.34381 6.15954 7.25828 5.70628 7.21454C5.48195 7.1929 5.24668 7.18149 5 7.18149C1 7.18149 0 10.1815 0 11.1815C0 11.8482 0.333333 12.1815 1 12.1815H5.21636C5.07556 11.8974 5 11.5606 5 11.1815C5 10.1712 5.37724 9.13951 6.08982 8.27768C6.33327 7.98323 6.61587 7.70861 6.93593 7.46145ZM4.92004 8.18195C4.32256 9.0951 4 10.1362 4 11.1815H1C1 10.9208 1.16424 10.1515 1.75926 9.45728C2.30468 8.82095 3.25249 8.20116 4.92004 8.18195Z" fill="#2F2E2E"/>
<path d="M1.5 3.68149C1.5 2.02463 2.84315 0.681488 4.5 0.681488C6.15685 0.681488 7.5 2.02463 7.5 3.68149C7.5 5.33834 6.15685 6.68149 4.5 6.68149C2.84315 6.68149 1.5 5.33834 1.5 3.68149ZM4.5 1.68149C3.39543 1.68149 2.5 2.57692 2.5 3.68149C2.5 4.78606 3.39543 5.68149 4.5 5.68149C5.60457 5.68149 6.5 4.78606 6.5 3.68149C6.5 2.57692 5.60457 1.68149 4.5 1.68149Z" fill="#2F2E2E"/>
</svg>
