<?xml version="1.0" standalone="no"?>
<!DOCTYPE svg PUBLIC "-//W3C//DTD SVG 20010904//EN"
 "http://www.w3.org/TR/2001/REC-SVG-20010904/DTD/svg10.dtd">
<svg version="1.0" xmlns="http://www.w3.org/2000/svg"
 width="1024.000000pt" height="1024.000000pt" viewBox="0 0 1024.000000 1024.000000"
 preserveAspectRatio="xMidYMid meet">

<g transform="translate(0.000000,1024.000000) scale(0.100000,-0.100000)"
fill="#000000" stroke="none">
<path d="M4796 10230 c-633 -47 -1157 -174 -1721 -418 -380 -164 -698 -351
-1060 -623 -345 -259 -745 -665 -1015 -1029 -669 -905 -1026 -2032 -997 -3150
20 -747 169 -1384 481 -2061 244 -526 575 -998 1006 -1430 501 -503 1002 -843
1639 -1114 517 -220 1025 -343 1606 -391 239 -19 664 -14 900 11 1038 111
1978 509 2775 1174 152 127 415 384 557 546 220 249 459 586 621 876 951 1701
853 3800 -253 5404 -406 589 -970 1118 -1585 1486 -647 388 -1385 632 -2135
705 -188 18 -650 26 -819 14z m509 -181 c636 -75 1164 -542 1320 -1168 87
-347 44 -734 -115 -1052 -210 -420 -575 -713 -1025 -824 -188 -46 -497 -51
-685 -10 -641 137 -1127 659 -1215 1305 -106 774 379 1502 1138 1710 166 46
397 61 582 39z m-1245 -2954 l1055 -1055 1059 1053 c582 578 1063 1054 1069
1056 11 4 1587 -1568 1587 -1584 0 -5 -475 -485 -1056 -1066 l-1056 -1056
1054 -1058 c579 -581 1054 -1060 1056 -1064 1 -3 -356 -364 -793 -801 l-795
-795 -1060 1060 -1060 1060 -1060 -1060 -1060 -1060 -797 797 -796 796 1056
1064 1056 1063 -1054 1055 c-580 580 -1055 1060 -1055 1065 0 13 1572 1585
1585 1585 5 0 485 -475 1065 -1055z"/>
<path d="M7780 1813 l-65 -68 68 65 c62 60 72 70 64 70 -1 0 -32 -30 -67 -67z"/>
</g>
</svg>
