<svg width="12" height="17" viewBox="0 0 12 17" fill="none" xmlns="http://www.w3.org/2000/svg">
<path d="M6 8.98149C6.82843 8.98149 7.5 8.08688 7.5 6.98334C7.5 5.87979 6.82843 4.98519 6 4.98519C5.17157 4.98519 4.5 5.87979 4.5 6.98334C4.5 8.08688 5.17157 8.98149 6 8.98149Z" fill="#2F479B"/>
<path d="M9.95308 9.79034C9.75817 6.40541 8.98477 4.2886 8.17551 2.97838C7.70748 2.22063 7.23127 1.73918 6.8583 1.44252C6.67223 1.29451 6.51299 1.19341 6.39489 1.12727C6.33586 1.09421 6.28719 1.06992 6.25064 1.05289C6.1707 1.01565 6.10103 0.988823 6 0.988892C5.89212 0.988965 5.81554 1.02058 5.7337 1.06224C5.69788 1.08047 5.64996 1.10641 5.59172 1.14145C5.47518 1.21154 5.31755 1.3179 5.13303 1.47152C4.76331 1.77934 4.28944 2.27377 3.8229 3.03952C3.01804 4.36057 2.24626 6.46978 2.04858 9.78983L0.551586 11.6142L0.547828 11.6189C0.193202 12.0617 0 12.612 0 13.1792V16.4745C0 16.6896 0.137715 16.8805 0.341886 16.9484C0.546057 17.0164 0.770871 16.9463 0.9 16.7743L2.02515 15.2755C2.19123 15.0542 2.44467 14.8753 2.77743 14.7064C2.99074 14.5981 3.19059 14.5141 3.40235 14.4252C3.46685 14.3981 3.53245 14.3705 3.59987 14.3417C4.30059 14.7696 5.15025 14.9759 6 14.9759C6.84958 14.9759 7.69907 14.7697 8.3997 14.342C8.46678 14.3706 8.53206 14.398 8.59626 14.4249C8.8086 14.514 9.00898 14.5981 9.22251 14.7065C9.55528 14.8753 9.80874 15.0542 9.97485 15.2755L11.1 16.7743C11.2291 16.9463 11.4539 17.0164 11.6581 16.9484C11.8623 16.8805 12 16.6896 12 16.4745V13.1792C12 12.612 11.8068 12.0617 11.4522 11.6189L9.95308 9.79034ZM9.99995 11.4242L10 11.4792C10 12.344 9.71603 13.0626 9.24992 13.6176C9.39592 13.6814 9.54196 13.748 9.67537 13.8157C10.0641 14.013 10.4748 14.2763 10.7749 14.676L11 14.9759V13.1792C11 12.8398 10.8847 12.5105 10.673 12.2451L9.99995 11.4242ZM2.74995 13.6174C2.28391 13.0625 2 12.3439 2 11.4792L2.00005 11.4249L1.32698 12.2451C1.1153 12.5105 1 12.8398 1 13.1792V14.9759L1.22515 14.676C1.52512 14.2764 1.93573 14.0131 2.32437 13.8157C2.45772 13.748 2.60384 13.6813 2.74995 13.6174ZM6.0087 2.06073C6.07183 2.10131 6.14841 2.1549 6.23545 2.22413C6.51873 2.44945 6.91752 2.84414 7.32449 3.50304C8.13825 4.82055 9 7.22054 9 11.4792C9 12.3364 8.62605 12.9576 8.057 13.3705C7.51611 13.7629 6.78126 13.9769 6 13.9769C5.21852 13.9769 4.48348 13.7627 3.94256 13.3701C3.37377 12.9573 3 12.3362 3 11.4792C3 7.30091 3.86082 4.89878 4.6771 3.55898C5.08556 2.88856 5.48669 2.47758 5.77322 2.23903C5.8639 2.16353 5.9435 2.10498 6.0087 2.06073Z" fill="#2F479B"/>
<path d="M7.47895 15.337C6.9989 15.4298 6.49947 15.4755 6.00002 15.4755C5.50057 15.4755 5.00114 15.4298 4.52108 15.337L5.60002 16.7743C5.69444 16.9001 5.84264 16.9741 6.00002 16.9741C6.1574 16.9741 6.30559 16.9001 6.40002 16.7743L7.47895 15.337Z" fill="#2F479B"/>
</svg>
