<svg width="16" height="17" viewBox="0 0 16 17" fill="none" xmlns="http://www.w3.org/2000/svg">
<path d="M9 7.07037C9 6.51809 9.44772 6.07037 10 6.07037H15V8.07037H10C9.44772 8.07037 9 7.62266 9 7.07037Z" fill="black"/>
<path d="M1 9.07037H5C5.55228 9.07037 6 9.51809 6 10.0704C6 10.6227 5.55228 11.0704 5 11.0704H1V9.07037Z" fill="black"/>
<path d="M3.5 0.0703735C3.77614 0.0703735 4 0.294231 4 0.570374V1.07037H12V0.570374C12 0.294231 12.2239 0.0703735 12.5 0.0703735C12.7761 0.0703735 13 0.294231 13 0.570374V1.07037H14C15.1046 1.07037 16 1.9658 16 3.07037V14.0704C16 15.1749 15.1046 16.0704 14 16.0704H2C0.895431 16.0704 0 15.1749 0 14.0704V3.07037C0 1.9658 0.895431 1.07037 2 1.07037H3V0.570374C3 0.294231 3.22386 0.0703735 3.5 0.0703735ZM1 4.07037V14.0704C1 14.6227 1.44772 15.0704 2 15.0704H14C14.5523 15.0704 15 14.6227 15 14.0704V4.07037H1Z" fill="black"/>
</svg>
