<svg width="16" height="17" viewBox="0 0 16 17" fill="none" xmlns="http://www.w3.org/2000/svg">
<path d="M8.21144 2.11728C8.07742 2.05474 7.92258 2.05474 7.78856 2.11728L0.288558 5.61728C0.107914 5.70158 -0.00539504 5.88513 0.000197994 6.0844C0.005791 6.28367 0.129217 6.46058 0.314306 6.53461L7.81431 9.53461C7.93351 9.58229 8.06649 9.58229 8.1857 9.53461L14 7.20889V13.0704C13.4477 13.0704 13 13.5181 13 14.0704V16.0704H16V14.0704C16 13.5181 15.5523 13.0704 15 13.0704V6.80889L15.6857 6.53461C15.8708 6.46058 15.9942 6.28367 15.9998 6.0844C16.0054 5.88513 15.8921 5.70158 15.7114 5.61728L8.21144 2.11728ZM8 8.53186L1.75802 6.03506L8 3.12214L14.242 6.03506L8 8.53186Z" fill="#2F2E2E"/>
<path d="M4.17556 9.10221C4.04549 9.05343 3.90098 9.06097 3.77669 9.12301C3.6524 9.18506 3.55952 9.29602 3.52032 9.42929L3.02032 11.1293C2.94756 11.3767 3.07488 11.6388 3.31431 11.7346L7.81431 13.5346C7.93351 13.5823 8.06649 13.5823 8.1857 13.5346L12.6857 11.7346C12.9251 11.6388 13.0524 11.3767 12.9797 11.1293L12.4797 9.42929C12.4405 9.29602 12.3476 9.18506 12.2233 9.12301C12.099 9.06097 11.9545 9.05343 11.8244 9.10221L8 10.5364L4.17556 9.10221ZM4.10803 10.9751L4.32795 10.2274L7.82444 11.5385C7.93763 11.581 8.06237 11.581 8.17556 11.5385L11.6721 10.2274L11.892 10.9751L8 12.5319L4.10803 10.9751Z" fill="#2F2E2E"/>
</svg>
