<svg width="16" height="13" viewBox="0 0 16 13" fill="none" xmlns="http://www.w3.org/2000/svg">
<path d="M3.11205 1.78975C3.02622 0.908399 3.71889 0.14447 4.605 0.14447L7.00005 0.144488C7.27619 0.14449 7.50005 0.368347 7.50005 0.644488V1.02652C7.50005 1.7223 7.00277 2.2087 6.62827 2.49541C6.56335 2.54511 6.52933 2.58671 6.51319 2.61341C6.50547 2.62618 6.50237 2.63462 6.50115 2.6387C6.50003 2.64248 6.50005 2.6445 6.50005 2.6445L6.50037 2.64722C6.50037 2.64722 6.50144 2.65178 6.50343 2.65665C6.50747 2.66652 6.51713 2.68502 6.53896 2.71082C6.58456 2.76473 6.67015 2.83474 6.80944 2.90439C7.08831 3.04382 7.50856 3.1445 8.00005 3.1445C8.49154 3.1445 8.91179 3.04382 9.19066 2.90439C9.32995 2.83474 9.41554 2.76473 9.46114 2.71082C9.48297 2.68502 9.49263 2.66652 9.49667 2.65665C9.49866 2.65178 9.49973 2.64722 9.49973 2.64722L9.50005 2.6445C9.50005 2.6445 9.50007 2.64248 9.49894 2.6387C9.49773 2.63462 9.49463 2.62618 9.48691 2.61341C9.47077 2.58671 9.43675 2.54511 9.37183 2.49541C8.99732 2.2087 8.50005 1.7223 8.50005 1.02652V0.644488C8.50005 0.368346 8.72391 0.144488 9.00005 0.144488H11.395C12.2811 0.144488 12.9738 0.908414 12.888 1.78976L12.6445 4.64446H12.882C13.0768 4.64446 13.3023 4.4974 13.5569 4.16479C13.7668 3.89057 14.0852 3.64446 14.5 3.64446C15.0676 3.64446 15.4468 4.09156 15.6543 4.50664C15.8768 4.95163 16 5.53139 16 6.14446C16 6.75754 15.8768 7.3373 15.6543 7.78228C15.4468 8.19736 15.0676 8.64446 14.5 8.64446C14.0852 8.64446 13.7668 8.39835 13.5569 8.12413C13.3023 7.79152 13.0768 7.64446 12.882 7.64446H12.6445L12.888 10.4992C12.9738 11.3805 12.2811 12.1445 11.395 12.1445H9.00005C8.72391 12.1445 8.50005 11.9206 8.50005 11.6445V11.2624C8.50005 10.5667 8.99732 10.0803 9.37183 9.79354C9.43675 9.74384 9.47077 9.70225 9.48691 9.67555C9.49463 9.66278 9.49773 9.65434 9.49894 9.65026C9.50007 9.64648 9.50005 9.64446 9.50005 9.64446L9.49973 9.64174C9.49973 9.64174 9.49866 9.63718 9.49667 9.63231C9.49263 9.62244 9.48297 9.60394 9.46114 9.57814C9.41554 9.52423 9.32995 9.45422 9.19066 9.38457C8.91179 9.24514 8.49154 9.14446 8.00005 9.14446C7.50856 9.14446 7.08831 9.24514 6.80944 9.38457C6.67015 9.45422 6.58456 9.52423 6.53896 9.57814C6.51713 9.60394 6.50747 9.62244 6.50343 9.63231C6.50144 9.63718 6.50037 9.64174 6.50037 9.64174L6.50005 9.64446C6.50005 9.64446 6.50005 9.64654 6.50115 9.65026C6.50237 9.65434 6.50547 9.66278 6.51319 9.67555C6.52933 9.70225 6.56335 9.74384 6.62827 9.79354C7.00277 10.0803 7.50005 10.5667 7.50005 11.2624V11.6445C7.50005 11.7771 7.44737 11.9043 7.3536 11.998C7.25983 12.0918 7.13265 12.1445 7.00005 12.1445L4.60499 12.1445C3.7189 12.1445 3.02623 11.3805 3.11204 10.4992L3.35554 7.64445H3.11797C2.92319 7.64445 2.69774 7.79151 2.4431 8.12412C2.23317 8.39834 1.91483 8.64445 1.5 8.64445C0.932443 8.64445 0.55322 8.19735 0.345679 7.78227C0.123185 7.33728 0 6.75752 0 6.14445C0 5.53137 0.123185 4.95161 0.345679 4.50663C0.55322 4.09154 0.932443 3.64444 1.5 3.64444C1.91483 3.64444 2.23317 3.89055 2.4431 4.16477C2.69774 4.49739 2.92319 4.64444 3.11797 4.64444H3.35554L3.11205 1.78975ZM4.60499 1.14447C4.30918 1.14447 4.07804 1.39988 4.10748 1.69422L4.1082 1.70148L4.3982 5.10195C4.4101 5.24144 4.36297 5.37953 4.26828 5.48264C4.17359 5.58575 4.04 5.64444 3.90001 5.64444H3.11797C2.4222 5.64444 1.9358 5.14717 1.64908 4.77266C1.59938 4.70774 1.55779 4.67372 1.53109 4.65758C1.51832 4.64986 1.50988 4.64676 1.5058 4.64555C1.50208 4.64444 1.50002 4.64444 1.50002 4.64444L1.49728 4.64477C1.49728 4.64477 1.49272 4.64583 1.48785 4.64782C1.47798 4.65186 1.45947 4.66153 1.43368 4.68335C1.37977 4.72895 1.30975 4.81454 1.24011 4.95384C1.10067 5.23271 1 5.65295 1 6.14445C1 6.63594 1.10067 7.05618 1.24011 7.33505C1.30975 7.47435 1.37977 7.55994 1.43368 7.60554C1.45947 7.62736 1.47798 7.63703 1.48785 7.64107C1.49272 7.64306 1.49728 7.64412 1.49728 7.64412L1.5 7.64445C1.5 7.64445 1.50208 7.64445 1.5058 7.64334C1.50988 7.64213 1.51832 7.63903 1.53109 7.63131C1.55779 7.61517 1.59938 7.58115 1.64908 7.51623C1.9358 7.14172 2.4222 6.64445 3.11797 6.64445H3.90001C4.04 6.64445 4.17358 6.70314 4.26828 6.80625C4.36297 6.90936 4.4101 7.04745 4.3982 7.18694L4.10753 10.5947C4.07809 10.889 4.30918 11.1445 4.60499 11.1445L6.48284 11.1445C6.43532 10.9782 6.28784 10.7923 6.02038 10.5876C5.74616 10.3776 5.50005 10.0593 5.50005 9.64446C5.50005 9.07691 5.94715 8.69768 6.36223 8.49014C6.80722 8.26765 7.38697 8.14446 8.00005 8.14446C8.61313 8.14446 9.19288 8.26765 9.63787 8.49014C10.053 8.69768 10.5 9.07691 10.5 9.64446C10.5 10.0593 10.2539 10.3776 9.97972 10.5876C9.71225 10.7923 9.56477 10.9782 9.51726 11.1445H11.395C11.6908 11.1445 11.922 10.8891 11.8925 10.5947L11.8918 10.5875L11.6018 7.18696C11.5899 7.04747 11.637 6.90938 11.7317 6.80627C11.8264 6.70315 11.96 6.64446 12.1 6.64446H12.882C13.5778 6.64446 14.0642 7.14174 14.3509 7.51624C14.4006 7.58116 14.4422 7.61519 14.4689 7.63132C14.4817 7.63904 14.4901 7.64214 14.4942 7.64336C14.4979 7.64446 14.5 7.64446 14.5 7.64446L14.5027 7.64414C14.5027 7.64414 14.5073 7.64308 14.5122 7.64108C14.522 7.63704 14.5405 7.62738 14.5663 7.60556C14.6202 7.55995 14.6902 7.47436 14.7599 7.33507C14.8993 7.0562 15 6.63596 15 6.14446C15 5.65297 14.8993 5.23273 14.7599 4.95386C14.6902 4.81456 14.6202 4.72897 14.5663 4.68337C14.5405 4.66155 14.522 4.65188 14.5122 4.64784C14.5073 4.64585 14.5027 4.64478 14.5027 4.64478L14.5 4.64446C14.5 4.64446 14.498 4.64444 14.4942 4.64557C14.4901 4.64678 14.4817 4.64988 14.4689 4.6576C14.4422 4.67374 14.4006 4.70776 14.3509 4.77268C14.0642 5.14719 13.5778 5.64446 12.882 5.64446H12.1C11.96 5.64446 11.8264 5.58577 11.7317 5.48266C11.637 5.37955 11.5899 5.24146 11.6018 5.10197L11.8925 1.69423C11.9219 1.39989 11.6908 1.14449 11.395 1.14449H9.51726C9.56477 1.31073 9.71225 1.49662 9.97972 1.70139C10.2539 1.91133 10.5 2.22967 10.5 2.6445C10.5 3.21205 10.053 3.59127 9.63787 3.79882C9.19288 4.02131 8.61313 4.1445 8.00005 4.1445C7.38697 4.1445 6.80722 4.02131 6.36223 3.79882C5.94715 3.59127 5.50005 3.21205 5.50005 2.6445C5.50005 2.22967 5.74616 1.91133 6.02038 1.70139C6.28785 1.49662 6.43533 1.31073 6.48284 1.14448L4.60499 1.14447Z" fill="#2F2E2E"/>
</svg>
