<svg width="12" height="17" viewBox="0 0 12 17" fill="none" xmlns="http://www.w3.org/2000/svg">
<path d="M7.37503 0.934638L5.70634 0.070343L4.03765 0.934638L2.17963 1.21624L1.33765 2.8963L0 4.21624L0.306339 6.07034L0 7.92445L1.33765 9.24438L2.17963 10.9244L4.03765 11.206L5.70634 12.0703L7.37503 11.206L9.23305 10.9244L10.075 9.24438L11.4127 7.92445L11.1063 6.07034L11.4127 4.21624L10.075 2.8963L9.23305 1.21624L7.37503 0.934638ZM8.5711 2.12734L9.25505 3.49206L10.3416 4.56425L10.0928 6.07034L10.3416 7.57644L9.25505 8.64863L8.5711 10.0134L7.06182 10.2421L5.70634 10.9442L4.35085 10.2421L2.84158 10.0134L2.15763 8.64863L1.07106 7.57644L1.3199 6.07034L1.07106 4.56425L2.15763 3.49206L2.84158 2.12734L4.35085 1.89859L5.70634 1.19652L7.06182 1.89859L8.5711 2.12734Z" fill="#2F2E2E"/>
<path d="M1.70634 11.8642V16.0703L5.70634 15.0703L9.70634 16.0703V11.8641L7.68823 12.17L5.70633 13.1965L3.72443 12.17L1.70634 11.8642Z" fill="#2F2E2E"/>
</svg>
