<svg width="16" height="17" viewBox="0 0 16 17" fill="none" xmlns="http://www.w3.org/2000/svg">
<path d="M11 2.14447C11 1.59219 11.4477 1.14447 12 1.14447H14C14.5523 1.14447 15 1.59219 15 2.14447V14.1445H15.5C15.7761 14.1445 16 14.3683 16 14.6445C16 14.9206 15.7761 15.1445 15.5 15.1445H0.5C0.223858 15.1445 0 14.9206 0 14.6445C0 14.3683 0.223858 14.1445 0.5 14.1445H1V11.1445C1 10.5922 1.44772 10.1445 2 10.1445H4C4.55228 10.1445 5 10.5922 5 11.1445V14.1445H6V7.14447C6 6.59219 6.44772 6.14447 7 6.14447H9C9.55228 6.14447 10 6.59219 10 7.14447V14.1445H11V2.14447ZM12 14.1445H14V2.14447H12V14.1445ZM9 14.1445V7.14447H7V14.1445H9ZM4 14.1445V11.1445H2V14.1445H4Z" fill="black"/>
</svg>
