<svg width="16" height="12" viewBox="0 0 16 12" fill="none" xmlns="http://www.w3.org/2000/svg">
<path d="M6 6C7.65685 6 9 4.65685 9 3C9 1.34315 7.65685 0 6 0C4.34315 0 3 1.34315 3 3C3 4.65685 4.34315 6 6 6Z" fill="black"/>
<path d="M1 12C1 12 0 12 0 11C0 10 1 7 6 7C11 7 12 10 12 11C12 12 11 12 11 12H1Z" fill="black"/>
<path d="M11 1.5C11 1.22386 11.2239 1 11.5 1H15.5C15.7761 1 16 1.22386 16 1.5C16 1.77614 15.7761 2 15.5 2H11.5C11.2239 2 11 1.77614 11 1.5Z" fill="black"/>
<path d="M11.5 4C11.2239 4 11 4.22386 11 4.5C11 4.77614 11.2239 5 11.5 5H15.5C15.7761 5 16 4.77614 16 4.5C16 4.22386 15.7761 4 15.5 4H11.5Z" fill="black"/>
<path d="M13.5 7C13.2239 7 13 7.22386 13 7.5C13 7.77614 13.2239 8 13.5 8H15.5C15.7761 8 16 7.77614 16 7.5C16 7.22386 15.7761 7 15.5 7H13.5Z" fill="black"/>
<path d="M13.5 10C13.2239 10 13 10.2239 13 10.5C13 10.7761 13.2239 11 13.5 11H15.5C15.7761 11 16 10.7761 16 10.5C16 10.2239 15.7761 10 15.5 10H13.5Z" fill="black"/>
</svg>
